<?xml version="1.0" encoding="utf-8"?>
<!-- Generator: Adobe Illustrator 28.2.0, SVG Export Plug-In . SVG Version: 6.00 Build 0)  -->
<svg version="1.1" xmlns="http://www.w3.org/2000/svg" xmlns:xlink="http://www.w3.org/1999/xlink" x="0px" y="0px"
	 viewBox="0 0 1013 1011" style="enable-background:new 0 0 1013 1011;" xml:space="preserve">
<style type="text/css">
	.st0{fill:#68BCB8;}
	.st1{fill:#1B7F7A;}
	.st2{fill:#003433;}
	.st3{fill:#005655;}
	.st4{fill:#FFFFFF;}
	.st5{fill:#E5BC89;}
	.st6{fill:#8C581B;}
	.st7{fill:#D8A160;}
	.st8{fill:#C9862D;}
</style>
<g id="Capa_1">
</g>
<g id="Capa_2">
</g>
<g id="Capa_3">
	<g>
		<g>
			<path class="st0" d="M242.17,221.62l-77.48-84.99c-44.33,40.83-81.31,89.51-108.75,143.84l102.97,51.27
				C179.98,290.18,208.29,252.93,242.17,221.62z"/>
			<path class="st0" d="M53.71,284.94C27.5,338.14,10.39,396.64,4.44,458.4l114.52,10.61c4.63-47.26,17.72-92.04,37.73-132.8
				L53.71,284.94z"/>
			<path class="st0" d="M321.63,38.21c-56.86,22.37-108.67,54.78-153.25,95.04l77.48,84.99c34.17-30.77,73.83-55.58,117.32-72.76
				L321.63,38.21z"/>
			<path class="st1" d="M118.5,473.99L3.98,463.38c-1.25,14.51-1.9,29.18-1.9,44.02c0,46.96,6.43,92.42,18.45,135.55l110.64-31.48
				c-9.17-33.12-14.08-68.02-14.08-104.07C117.08,496.15,117.56,485,118.5,473.99z"/>
			<path class="st1" d="M197.14,743.82l-91.77,69.3c36.71,48.04,81.85,89.28,133.23,121.51l60.55-97.78
				C259.85,812.12,225.29,780.56,197.14,743.82z"/>
			<path class="st1" d="M21.89,647.76c17.06,58.96,44.59,113.47,80.46,161.38l91.78-69.31c-27.41-36.72-48.48-78.45-61.6-123.56
				L21.89,647.76z"/>
			<path class="st2" d="M1007.71,458.4c-5.96-61.76-23.06-120.26-49.27-173.46l-102.97,51.27c20.01,40.76,33.1,85.54,37.73,132.8
				L1007.71,458.4z"/>
			<path class="st3" d="M880.99,611.47l110.64,31.48c12.02-43.13,18.45-88.59,18.45-135.55c0-14.83-0.65-29.51-1.9-44.02
				l-114.52,10.61c0.94,11.01,1.42,22.16,1.42,33.41C895.08,543.45,890.17,578.34,880.99,611.47z"/>
			<path class="st0" d="M503.58,3.41c-62.43,0.3-122.18,11.95-177.28,33l41.56,107.27c42.21-16.05,87.95-24.96,135.72-25.26V3.41z"
				/>
			<path class="st2" d="M843.76,133.26c-44.58-40.26-96.39-72.67-153.25-95.04l-41.56,107.27c43.5,17.19,83.15,41.99,117.32,72.76
				L843.76,133.26z"/>
			<path class="st2" d="M853.24,331.73l102.97-51.27c-27.44-54.32-64.42-103-108.75-143.84l-77.48,84.99
				C803.87,252.93,832.17,290.18,853.24,331.73z"/>
			<path onclick="window.location.href = &quot;https://www.google.com&quot;;" class="st2" d="M685.86,36.41
				C630.75,15.36,571,3.71,508.58,3.41v115.01c47.78,0.3,93.51,9.21,135.72,25.26L685.86,36.41z"/>
			<path class="st3" d="M713.01,836.85l60.55,97.78c51.38-32.23,96.52-73.47,133.23-121.51l-91.77-69.3
				C786.86,780.56,752.3,812.12,713.01,836.85z"/>
			<path class="st3" d="M909.8,809.14c35.87-47.91,63.4-102.43,80.46-161.38l-110.64-31.48c-13.13,45.11-34.19,86.84-61.6,123.56
				L909.8,809.14z"/>
			<path class="st1" d="M437.04,890.29l-21.13,113.05c29.26,5.28,59.39,8.05,90.17,8.05s60.91-2.76,90.17-8.05l-21.13-113.05
				c-22.4,4.01-45.47,6.11-69.03,6.11C482.52,896.4,459.45,894.31,437.04,890.29z"/>
			<path class="st3" d="M601.16,1002.44c60.6-11.57,117.34-34,168.14-65.17l-60.54-97.78c-38.93,23.81-82.36,40.97-128.73,49.89
				L601.16,1002.44z"/>
			<path class="st1" d="M242.85,937.27c50.8,31.17,107.54,53.6,168.14,65.17l21.13-113.06c-46.37-8.92-89.81-26.08-128.73-49.89
				L242.85,937.27z"/>
		</g>
		<g>
			<circle class="st4" cx="585" cy="66" r="30"/>
		</g>
		<g>
			<g>
				<path class="st2" d="M578.67,63.9v1.93c0,0.92-0.11,1.73-0.34,2.43s-0.55,1.28-0.98,1.75s-0.92,0.83-1.5,1.06
					s-1.22,0.36-1.92,0.36c-0.71,0-1.35-0.12-1.93-0.36s-1.08-0.59-1.5-1.06s-0.75-1.06-0.98-1.75s-0.34-1.51-0.34-2.43V63.9
					c0-0.92,0.11-1.73,0.34-2.43s0.55-1.29,0.97-1.76s0.92-0.82,1.5-1.06s1.22-0.36,1.93-0.36c0.7,0,1.35,0.12,1.93,0.36
					s1.08,0.59,1.5,1.06s0.74,1.05,0.97,1.76C578.55,62.17,578.67,62.98,578.67,63.9z M575.62,65.84v-1.95
					c0-0.57-0.04-1.06-0.11-1.47s-0.18-0.73-0.32-0.98s-0.32-0.44-0.53-0.55s-0.46-0.18-0.75-0.18c-0.3,0-0.55,0.06-0.76,0.18
					s-0.39,0.3-0.52,0.55s-0.24,0.58-0.3,0.98s-0.1,0.89-0.1,1.47v1.95c0,0.57,0.03,1.05,0.1,1.45s0.17,0.73,0.3,0.99
					s0.32,0.45,0.53,0.57s0.47,0.18,0.76,0.18c0.28,0,0.53-0.06,0.74-0.18s0.39-0.31,0.53-0.57s0.24-0.59,0.31-0.99
					S575.62,66.41,575.62,65.84z"/>
				<path class="st2" d="M583.24,58.46v12.8h-3.01v-12.8H583.24z M587.82,58.46v2.38h-5.62v-2.38H587.82z M587.06,63.54v2.29h-4.87
					v-2.29H587.06z M587.79,68.89v2.37h-5.6v-2.37H587.79z"/>
				<path class="st2" d="M598.9,58.46v12.8h-2.89V61.8l-2.33,0.85v-2.25l4.97-1.94H598.9z"/>
			</g>
		</g>
		<g>
			<circle class="st4" cx="739" cy="128" r="30"/>
		</g>
		<g>
			<g>
				<path class="st2" d="M732.67,125.9v1.93c0,0.92-0.11,1.73-0.34,2.43s-0.55,1.28-0.98,1.75s-0.92,0.83-1.5,1.06
					s-1.22,0.36-1.92,0.36c-0.71,0-1.35-0.12-1.93-0.36s-1.08-0.59-1.5-1.06s-0.75-1.06-0.98-1.75s-0.34-1.51-0.34-2.43v-1.93
					c0-0.92,0.11-1.73,0.34-2.43s0.55-1.29,0.97-1.76s0.92-0.82,1.5-1.06s1.22-0.36,1.93-0.36c0.7,0,1.35,0.12,1.93,0.36
					s1.08,0.59,1.5,1.06s0.74,1.05,0.97,1.76C732.55,124.17,732.67,124.98,732.67,125.9z M729.62,127.84v-1.95
					c0-0.57-0.04-1.06-0.11-1.47s-0.18-0.73-0.32-0.98s-0.32-0.44-0.53-0.55s-0.46-0.18-0.75-0.18c-0.3,0-0.55,0.06-0.76,0.18
					s-0.39,0.3-0.52,0.55s-0.24,0.58-0.3,0.98s-0.1,0.89-0.1,1.47v1.95c0,0.57,0.03,1.05,0.1,1.45s0.17,0.73,0.3,0.99
					s0.32,0.45,0.53,0.57s0.47,0.18,0.76,0.18c0.28,0,0.53-0.06,0.74-0.18s0.39-0.31,0.53-0.57s0.24-0.59,0.31-0.99
					S729.62,128.41,729.62,127.84z"/>
				<path class="st2" d="M737.24,120.46v12.8h-3.01v-12.8H737.24z M741.82,120.46v2.38h-5.62v-2.38H741.82z M741.06,125.54v2.29
					h-4.87v-2.29H741.06z M741.79,130.89v2.37h-5.6v-2.37H741.79z"/>
				<path class="st2" d="M754.75,130.98v2.29h-7.71v-1.93l3.45-4.32c0.28-0.42,0.5-0.79,0.67-1.12c0.17-0.33,0.29-0.63,0.36-0.9
					s0.11-0.51,0.11-0.73c0-0.37-0.04-0.68-0.11-0.93s-0.17-0.44-0.3-0.57c-0.13-0.13-0.29-0.19-0.49-0.19
					c-0.21,0-0.39,0.09-0.54,0.26s-0.27,0.42-0.35,0.72c-0.08,0.3-0.12,0.65-0.12,1.03h-2.9c0-0.79,0.17-1.5,0.5-2.15
					s0.8-1.17,1.4-1.56s1.29-0.58,2.08-0.58c0.82,0,1.51,0.15,2.06,0.44c0.55,0.29,0.97,0.72,1.25,1.27s0.42,1.22,0.42,2
					c0,0.45-0.06,0.87-0.18,1.28s-0.29,0.82-0.51,1.22s-0.5,0.81-0.83,1.23s-0.71,0.87-1.13,1.34l-1.06,1.91H754.75z"/>
			</g>
		</g>
		<g>
			<circle class="st4" cx="863" cy="236" r="30"/>
		</g>
		<g>
			<g>
				<path class="st2" d="M856.67,233.9v1.93c0,0.92-0.11,1.73-0.34,2.43s-0.55,1.28-0.98,1.75s-0.92,0.83-1.5,1.06
					s-1.22,0.36-1.92,0.36c-0.71,0-1.35-0.12-1.93-0.36s-1.08-0.59-1.5-1.06s-0.75-1.06-0.98-1.75s-0.34-1.51-0.34-2.43v-1.93
					c0-0.92,0.11-1.73,0.34-2.43s0.55-1.29,0.97-1.76s0.92-0.82,1.5-1.06s1.22-0.36,1.93-0.36c0.7,0,1.35,0.12,1.93,0.36
					s1.08,0.59,1.5,1.06s0.74,1.05,0.97,1.76C856.55,232.17,856.67,232.98,856.67,233.9z M853.62,235.84v-1.95
					c0-0.57-0.04-1.06-0.11-1.47s-0.18-0.73-0.32-0.98s-0.32-0.44-0.53-0.55s-0.46-0.18-0.75-0.18c-0.3,0-0.55,0.06-0.76,0.18
					s-0.39,0.3-0.52,0.55s-0.24,0.58-0.3,0.98s-0.1,0.89-0.1,1.47v1.95c0,0.57,0.03,1.05,0.1,1.45s0.17,0.73,0.3,0.99
					s0.32,0.45,0.53,0.57s0.47,0.18,0.76,0.18c0.28,0,0.53-0.06,0.74-0.18s0.39-0.31,0.53-0.57s0.24-0.59,0.31-0.99
					S853.62,236.41,853.62,235.84z"/>
				<path class="st2" d="M861.24,228.46v12.8h-3.01v-12.8H861.24z M865.82,228.46v2.38h-5.62v-2.38H865.82z M865.06,233.54v2.29
					h-4.87v-2.29H865.06z M865.79,238.89v2.37h-5.6v-2.37H865.79z"/>
				<path class="st2" d="M873.38,235.83v-1.48h1.78c0.54,0,1.03,0.07,1.48,0.22s0.83,0.36,1.15,0.64s0.57,0.63,0.74,1.04
					s0.26,0.89,0.26,1.42c0,0.6-0.11,1.13-0.32,1.6s-0.51,0.86-0.89,1.19s-0.82,0.57-1.33,0.73s-1.05,0.25-1.64,0.25
					c-0.46,0-0.91-0.07-1.37-0.22s-0.87-0.37-1.24-0.67s-0.68-0.69-0.91-1.16s-0.34-1.04-0.34-1.69h2.9c0,0.27,0.05,0.51,0.15,0.73
					s0.23,0.39,0.39,0.52s0.33,0.19,0.51,0.19c0.25,0,0.47-0.07,0.64-0.21s0.31-0.32,0.4-0.56s0.14-0.5,0.14-0.78
					c0-0.43-0.05-0.78-0.14-1.04s-0.23-0.45-0.41-0.56s-0.41-0.18-0.68-0.18H873.38z M873.38,233.62h1.28c0.25,0,0.45-0.07,0.61-0.2
					s0.28-0.32,0.35-0.56s0.11-0.53,0.11-0.87c0-0.26-0.04-0.5-0.11-0.71c-0.07-0.22-0.19-0.39-0.33-0.52
					c-0.15-0.13-0.34-0.2-0.57-0.2c-0.14,0-0.28,0.05-0.43,0.15s-0.26,0.23-0.36,0.41s-0.14,0.39-0.14,0.64h-2.89
					c0-0.73,0.17-1.35,0.52-1.87s0.8-0.92,1.37-1.2c0.56-0.28,1.18-0.42,1.83-0.42c0.79,0,1.48,0.14,2.07,0.42s1.07,0.69,1.41,1.23
					s0.51,1.21,0.51,2.01c0,0.44-0.09,0.85-0.26,1.24s-0.42,0.73-0.74,1.02s-0.68,0.52-1.1,0.69s-0.87,0.25-1.36,0.25h-1.78V233.62z
					"/>
			</g>
		</g>
		<g>
			<circle class="st4" cx="932" cy="382" r="30"/>
		</g>
		<g>
			<g>
				<path class="st2" d="M925.67,379.9v1.93c0,0.92-0.11,1.73-0.34,2.43s-0.55,1.28-0.98,1.75s-0.92,0.83-1.5,1.06
					s-1.22,0.36-1.92,0.36c-0.71,0-1.35-0.12-1.93-0.36s-1.08-0.59-1.5-1.06s-0.75-1.06-0.98-1.75s-0.34-1.51-0.34-2.43v-1.93
					c0-0.92,0.11-1.73,0.34-2.43s0.55-1.29,0.97-1.76s0.92-0.82,1.5-1.06s1.22-0.36,1.93-0.36c0.7,0,1.35,0.12,1.93,0.36
					s1.08,0.59,1.5,1.06s0.74,1.05,0.97,1.76C925.55,378.17,925.67,378.98,925.67,379.9z M922.62,381.84v-1.95
					c0-0.57-0.04-1.06-0.11-1.47s-0.18-0.73-0.32-0.98s-0.32-0.44-0.53-0.55s-0.46-0.18-0.75-0.18c-0.3,0-0.55,0.06-0.76,0.18
					s-0.39,0.3-0.52,0.55s-0.24,0.58-0.3,0.98s-0.1,0.89-0.1,1.47v1.95c0,0.57,0.03,1.05,0.1,1.45s0.17,0.73,0.3,0.99
					s0.32,0.45,0.53,0.57s0.47,0.18,0.76,0.18c0.28,0,0.53-0.06,0.74-0.18s0.39-0.31,0.53-0.57s0.24-0.59,0.31-0.99
					S922.62,382.41,922.62,381.84z"/>
				<path class="st2" d="M930.24,374.46v12.8h-3.01v-12.8H930.24z M934.82,374.46v2.38h-5.62v-2.38H934.82z M934.06,379.54v2.29
					h-4.87v-2.29H934.06z M934.79,384.89v2.37h-5.6v-2.37H934.79z"/>
				<path class="st2" d="M947.84,382.26v2.29h-7.79l-0.18-1.81l4.17-8.27h2.26l-2.36,4.16l-1.34,3.64H947.84z M946.91,374.46v12.8
					h-2.89v-12.8H946.91z"/>
			</g>
		</g>
		<g>
			<circle class="st4" cx="956" cy="533" r="30"/>
		</g>
		<g>
			<g>
				<path class="st2" d="M949.67,530.9v1.93c0,0.92-0.11,1.73-0.34,2.43s-0.55,1.28-0.98,1.75s-0.92,0.83-1.5,1.06
					s-1.22,0.36-1.92,0.36c-0.71,0-1.35-0.12-1.93-0.36s-1.08-0.59-1.5-1.06s-0.75-1.06-0.98-1.75s-0.34-1.51-0.34-2.43v-1.93
					c0-0.92,0.11-1.73,0.34-2.44s0.55-1.29,0.97-1.76c0.42-0.47,0.92-0.82,1.5-1.06s1.22-0.36,1.93-0.36c0.7,0,1.35,0.12,1.93,0.36
					s1.08,0.59,1.5,1.06c0.42,0.47,0.74,1.05,0.97,1.76C949.55,529.17,949.67,529.98,949.67,530.9z M946.62,532.84v-1.95
					c0-0.57-0.04-1.06-0.11-1.47s-0.18-0.73-0.32-0.98s-0.32-0.44-0.53-0.55s-0.46-0.18-0.75-0.18c-0.3,0-0.55,0.06-0.76,0.18
					s-0.39,0.3-0.52,0.55s-0.24,0.58-0.3,0.98s-0.1,0.89-0.1,1.47v1.95c0,0.57,0.03,1.05,0.1,1.45s0.17,0.73,0.3,0.99
					s0.32,0.45,0.53,0.57s0.47,0.18,0.76,0.18c0.28,0,0.53-0.06,0.74-0.18s0.39-0.31,0.53-0.57s0.24-0.59,0.31-0.99
					S946.62,533.41,946.62,532.84z"/>
				<path class="st2" d="M954.24,525.46v12.8h-3.01v-12.8H954.24z M958.82,525.46v2.38h-5.62v-2.38H958.82z M958.06,530.54v2.29
					h-4.87v-2.29H958.06z M958.79,535.89v2.37h-5.6v-2.37H958.79z"/>
				<path class="st2" d="M966.41,532.56l-2.29-0.55l0.68-6.54h6.49v2.3h-4.14l-0.2,2.54c0.11-0.08,0.29-0.18,0.54-0.29
					s0.54-0.17,0.86-0.17c0.54,0,1.03,0.1,1.44,0.29s0.77,0.47,1.05,0.83c0.28,0.37,0.5,0.82,0.64,1.35s0.22,1.14,0.22,1.83
					c0,0.55-0.08,1.08-0.23,1.59s-0.39,0.97-0.72,1.38s-0.73,0.73-1.21,0.97s-1.06,0.36-1.71,0.36c-0.49,0-0.96-0.09-1.43-0.26
					c-0.47-0.18-0.89-0.43-1.27-0.76c-0.38-0.33-0.68-0.73-0.89-1.2s-0.32-1-0.3-1.59h2.9c0.01,0.31,0.05,0.58,0.14,0.81
					c0.08,0.23,0.2,0.41,0.34,0.53s0.31,0.19,0.49,0.19c0.21,0,0.38-0.06,0.51-0.18s0.24-0.28,0.31-0.48s0.12-0.44,0.15-0.71
					c0.03-0.27,0.04-0.55,0.04-0.85c0-0.32-0.02-0.6-0.07-0.85c-0.04-0.25-0.12-0.47-0.22-0.65c-0.1-0.18-0.24-0.31-0.4-0.41
					s-0.37-0.14-0.61-0.14c-0.32,0-0.57,0.07-0.75,0.22S966.47,532.4,966.41,532.56z"/>
			</g>
		</g>
		<g>
			<circle class="st4" cx="907" cy="702" r="30"/>
		</g>
		<g>
			<g>
				<path class="st2" d="M900.67,699.9v1.93c0,0.92-0.11,1.73-0.34,2.43s-0.55,1.28-0.98,1.75s-0.92,0.83-1.5,1.06
					s-1.22,0.36-1.92,0.36c-0.71,0-1.35-0.12-1.93-0.36s-1.08-0.59-1.5-1.06s-0.75-1.06-0.98-1.75s-0.34-1.51-0.34-2.43v-1.93
					c0-0.92,0.11-1.73,0.34-2.44s0.55-1.29,0.97-1.76s0.92-0.82,1.5-1.06s1.22-0.36,1.93-0.36c0.7,0,1.35,0.12,1.93,0.36
					s1.08,0.59,1.5,1.06s0.74,1.05,0.97,1.76C900.55,698.17,900.67,698.98,900.67,699.9z M897.62,701.84v-1.95
					c0-0.57-0.04-1.06-0.11-1.47s-0.18-0.73-0.32-0.98s-0.32-0.44-0.53-0.55s-0.46-0.18-0.75-0.18c-0.3,0-0.55,0.06-0.76,0.18
					s-0.39,0.3-0.52,0.55s-0.24,0.58-0.3,0.98s-0.1,0.89-0.1,1.47v1.95c0,0.57,0.03,1.05,0.1,1.45s0.17,0.73,0.3,0.99
					s0.32,0.45,0.53,0.57s0.47,0.18,0.76,0.18c0.28,0,0.53-0.06,0.74-0.18s0.39-0.31,0.53-0.57s0.24-0.59,0.31-0.99
					S897.62,702.41,897.62,701.84z"/>
				<path class="st2" d="M905.24,694.46v12.8h-3.01v-12.8H905.24z M909.82,694.46v2.38h-5.62v-2.38H909.82z M909.06,699.54v2.29
					h-4.87v-2.29H909.06z M909.79,704.89v2.37h-5.6v-2.37H909.79z"/>
				<path class="st2" d="M920.79,694.28h0.45v2.33h-0.13c-0.45,0-0.86,0.08-1.25,0.24s-0.73,0.4-1.02,0.72s-0.52,0.72-0.68,1.21
					s-0.24,1.06-0.24,1.71v2.24c0,0.41,0.02,0.77,0.07,1.07c0.04,0.3,0.11,0.56,0.19,0.76c0.08,0.2,0.2,0.35,0.33,0.45
					c0.14,0.1,0.3,0.15,0.49,0.15c0.15,0,0.29-0.05,0.43-0.16c0.13-0.11,0.25-0.25,0.34-0.45c0.1-0.19,0.17-0.42,0.22-0.68
					s0.08-0.54,0.08-0.84c0-0.33-0.03-0.62-0.09-0.89c-0.06-0.26-0.14-0.49-0.25-0.67s-0.23-0.33-0.37-0.42s-0.29-0.15-0.45-0.15
					c-0.28,0-0.5,0.08-0.67,0.25s-0.3,0.38-0.37,0.64s-0.11,0.52-0.11,0.78l-0.65-0.72c-0.01-0.35,0.04-0.71,0.15-1.09
					c0.12-0.38,0.29-0.72,0.52-1.04s0.53-0.58,0.89-0.78c0.36-0.2,0.78-0.3,1.27-0.3c0.49,0,0.93,0.11,1.3,0.33s0.69,0.53,0.95,0.93
					s0.45,0.87,0.58,1.4c0.13,0.53,0.2,1.11,0.2,1.73c0,0.63-0.1,1.21-0.29,1.75s-0.46,1-0.8,1.4c-0.34,0.4-0.75,0.71-1.23,0.93
					s-1,0.33-1.57,0.33c-0.58,0-1.12-0.12-1.6-0.35c-0.49-0.23-0.92-0.57-1.29-1.01s-0.66-0.98-0.86-1.62
					c-0.2-0.64-0.3-1.36-0.3-2.17v-1.08c0-1.1,0.15-2.07,0.46-2.93c0.31-0.86,0.73-1.58,1.27-2.17c0.54-0.59,1.15-1.05,1.85-1.36
					C919.29,694.43,920.02,694.28,920.79,694.28z"/>
			</g>
		</g>
		<g>
			<circle class="st4" cx="800" cy="839" r="30"/>
		</g>
		<g>
			<g>
				<path class="st2" d="M793.67,836.9v1.93c0,0.92-0.11,1.73-0.34,2.43s-0.55,1.28-0.98,1.75s-0.92,0.83-1.5,1.06
					s-1.22,0.36-1.92,0.36c-0.71,0-1.35-0.12-1.93-0.36s-1.08-0.59-1.5-1.06s-0.75-1.06-0.98-1.75s-0.34-1.51-0.34-2.43v-1.93
					c0-0.92,0.11-1.73,0.34-2.44s0.55-1.29,0.97-1.76s0.92-0.82,1.5-1.06s1.22-0.36,1.93-0.36c0.7,0,1.35,0.12,1.93,0.36
					s1.08,0.59,1.5,1.06s0.74,1.05,0.97,1.76C793.55,835.17,793.67,835.98,793.67,836.9z M790.62,838.84v-1.95
					c0-0.57-0.04-1.06-0.11-1.47s-0.18-0.73-0.32-0.98s-0.32-0.44-0.53-0.55s-0.46-0.18-0.75-0.18c-0.3,0-0.55,0.06-0.76,0.18
					s-0.39,0.3-0.52,0.55s-0.24,0.58-0.3,0.98s-0.1,0.89-0.1,1.47v1.95c0,0.57,0.03,1.05,0.1,1.45s0.17,0.73,0.3,0.99
					s0.32,0.45,0.53,0.57s0.47,0.18,0.76,0.18c0.28,0,0.53-0.06,0.74-0.18s0.39-0.31,0.53-0.57s0.24-0.59,0.31-0.99
					S790.62,839.41,790.62,838.84z"/>
				<path class="st2" d="M798.24,831.46v12.8h-3.01v-12.8H798.24z M802.82,831.46v2.38h-5.62v-2.38H802.82z M802.06,836.54v2.29
					h-4.87v-2.29H802.06z M802.79,841.89v2.37h-5.6v-2.37H802.79z"/>
				<path class="st2" d="M815.75,831.46v1.58l-3.88,11.21h-3.05l3.9-10.51h-4.89v-2.29H815.75z"/>
			</g>
		</g>
		<g>
			<circle class="st4" cx="667" cy="921" r="30"/>
		</g>
		<g>
			<g>
				<path class="st2" d="M660.67,918.9v1.93c0,0.92-0.11,1.73-0.34,2.43s-0.55,1.28-0.98,1.75s-0.92,0.83-1.5,1.06
					s-1.22,0.36-1.92,0.36c-0.71,0-1.35-0.12-1.93-0.36s-1.08-0.59-1.5-1.06s-0.75-1.06-0.98-1.75s-0.34-1.51-0.34-2.43v-1.93
					c0-0.92,0.11-1.73,0.34-2.44s0.55-1.29,0.97-1.76s0.92-0.82,1.5-1.06s1.22-0.36,1.93-0.36c0.7,0,1.35,0.12,1.93,0.36
					s1.08,0.59,1.5,1.06s0.74,1.05,0.97,1.76C660.55,917.17,660.67,917.98,660.67,918.9z M657.62,920.84v-1.95
					c0-0.57-0.04-1.06-0.11-1.47s-0.18-0.73-0.32-0.98s-0.32-0.44-0.53-0.55s-0.46-0.18-0.75-0.18c-0.3,0-0.55,0.06-0.76,0.18
					s-0.39,0.3-0.52,0.55s-0.24,0.58-0.3,0.98s-0.1,0.89-0.1,1.47v1.95c0,0.57,0.03,1.05,0.1,1.45s0.17,0.73,0.3,0.99
					s0.32,0.45,0.53,0.57s0.47,0.18,0.76,0.18c0.28,0,0.53-0.06,0.74-0.18s0.39-0.31,0.53-0.57s0.24-0.59,0.31-0.99
					S657.62,921.41,657.62,920.84z"/>
				<path class="st2" d="M665.24,913.46v12.8h-3.01v-12.8H665.24z M669.82,913.46v2.38h-5.62v-2.38H669.82z M669.06,918.54v2.29
					h-4.87v-2.29H669.06z M669.79,923.89v2.37h-5.6v-2.37H669.79z"/>
				<path class="st2" d="M682.7,922.74c0,0.81-0.16,1.5-0.48,2.05s-0.77,0.96-1.34,1.24s-1.23,0.41-1.97,0.41
					c-0.73,0-1.38-0.14-1.96-0.41c-0.58-0.28-1.03-0.69-1.37-1.24s-0.5-1.23-0.5-2.05c0-0.56,0.1-1.06,0.29-1.5s0.46-0.82,0.81-1.13
					s0.75-0.55,1.21-0.71s0.96-0.25,1.5-0.25c0.73,0,1.39,0.14,1.96,0.43s1.03,0.7,1.35,1.24S682.7,921.99,682.7,922.74z
					 M682.5,916.88c0,0.67-0.15,1.25-0.45,1.75c-0.3,0.5-0.72,0.89-1.26,1.17s-1.16,0.42-1.87,0.42c-0.7,0-1.33-0.14-1.87-0.42
					s-0.97-0.67-1.28-1.17c-0.31-0.5-0.46-1.08-0.46-1.75c0-0.79,0.15-1.45,0.46-1.98c0.31-0.53,0.73-0.94,1.28-1.21
					s1.17-0.41,1.86-0.41c0.71,0,1.33,0.14,1.87,0.41s0.96,0.68,1.27,1.21S682.5,916.1,682.5,916.88z M679.81,922.5
					c0-0.35-0.04-0.65-0.11-0.89s-0.18-0.43-0.31-0.56s-0.3-0.19-0.49-0.19c-0.18,0-0.34,0.06-0.48,0.19s-0.25,0.31-0.33,0.56
					s-0.11,0.54-0.11,0.89c0,0.34,0.04,0.63,0.12,0.88c0.08,0.25,0.19,0.44,0.32,0.57s0.3,0.2,0.49,0.2c0.19,0,0.36-0.07,0.49-0.2
					s0.24-0.32,0.31-0.57S679.81,922.84,679.81,922.5z M679.61,917.04c0-0.3-0.02-0.57-0.07-0.79c-0.04-0.22-0.12-0.39-0.22-0.51
					c-0.1-0.12-0.24-0.18-0.42-0.18c-0.16,0-0.3,0.06-0.4,0.18s-0.18,0.29-0.23,0.5c-0.05,0.22-0.08,0.49-0.08,0.8
					c0,0.3,0.02,0.57,0.07,0.8s0.12,0.41,0.23,0.54c0.11,0.13,0.25,0.19,0.42,0.19c0.18,0,0.31-0.06,0.42-0.19s0.17-0.31,0.22-0.54
					S679.61,917.35,679.61,917.04z"/>
			</g>
		</g>
		<g>
			<circle class="st4" cx="506" cy="951" r="30"/>
		</g>
		<g>
			<g>
				<path class="st2" d="M499.67,948.9v1.93c0,0.92-0.11,1.73-0.34,2.43s-0.55,1.28-0.98,1.75s-0.92,0.83-1.5,1.06
					s-1.22,0.36-1.92,0.36c-0.71,0-1.35-0.12-1.93-0.36s-1.08-0.59-1.5-1.06s-0.75-1.06-0.98-1.75s-0.34-1.51-0.34-2.43v-1.93
					c0-0.92,0.11-1.73,0.34-2.44s0.55-1.29,0.97-1.76s0.92-0.82,1.5-1.06s1.22-0.36,1.93-0.36c0.7,0,1.35,0.12,1.93,0.36
					s1.08,0.59,1.5,1.06s0.74,1.05,0.97,1.76C499.55,947.17,499.67,947.98,499.67,948.9z M496.62,950.84v-1.95
					c0-0.57-0.04-1.06-0.11-1.47s-0.18-0.73-0.32-0.98s-0.32-0.44-0.53-0.55s-0.46-0.18-0.75-0.18c-0.3,0-0.55,0.06-0.76,0.18
					s-0.39,0.3-0.52,0.55s-0.24,0.58-0.3,0.98s-0.1,0.89-0.1,1.47v1.95c0,0.57,0.03,1.05,0.1,1.45s0.17,0.73,0.3,0.99
					s0.32,0.45,0.53,0.57s0.47,0.18,0.76,0.18c0.28,0,0.53-0.06,0.74-0.18s0.39-0.31,0.53-0.57s0.24-0.59,0.31-0.99
					S496.62,951.41,496.62,950.84z"/>
				<path class="st2" d="M504.24,943.46v12.8h-3.01v-12.8H504.24z M508.82,943.46v2.38h-5.62v-2.38H508.82z M508.06,948.54v2.29
					h-4.87v-2.29H508.06z M508.79,953.89v2.37h-5.6v-2.37H508.79z"/>
				<path class="st2" d="M515.72,954.06h0.13c0.44,0,0.84-0.06,1.2-0.19s0.67-0.33,0.94-0.6c0.26-0.27,0.46-0.63,0.61-1.06
					s0.22-0.97,0.22-1.59v-2.64c0-0.41-0.02-0.77-0.07-1.07s-0.11-0.55-0.19-0.75s-0.18-0.35-0.3-0.44
					c-0.12-0.1-0.25-0.14-0.39-0.14c-0.16,0-0.29,0.07-0.4,0.2s-0.21,0.31-0.29,0.53c-0.08,0.22-0.14,0.47-0.18,0.74
					s-0.06,0.55-0.06,0.82c0,0.31,0.02,0.6,0.07,0.87c0.04,0.27,0.11,0.5,0.2,0.69s0.2,0.35,0.34,0.46c0.14,0.11,0.3,0.17,0.49,0.17
					c0.16,0,0.31-0.05,0.43-0.14c0.12-0.1,0.22-0.23,0.3-0.39c0.08-0.16,0.14-0.34,0.18-0.52s0.06-0.37,0.05-0.55l0.82,0.68
					c0,0.38-0.07,0.74-0.2,1.11s-0.32,0.69-0.57,0.99c-0.24,0.3-0.52,0.53-0.83,0.71s-0.64,0.26-0.98,0.26
					c-0.49,0-0.93-0.1-1.32-0.31s-0.72-0.5-1-0.88s-0.49-0.84-0.63-1.37s-0.22-1.12-0.22-1.77c0-0.63,0.09-1.22,0.28-1.77
					s0.45-1.04,0.79-1.45c0.34-0.42,0.75-0.75,1.22-0.99c0.47-0.24,0.99-0.36,1.55-0.36c0.51,0,1,0.12,1.46,0.35
					s0.87,0.57,1.23,1.01c0.35,0.45,0.63,0.99,0.84,1.64s0.31,1.39,0.31,2.23v1.02c0,0.91-0.1,1.73-0.3,2.46s-0.48,1.38-0.84,1.93
					s-0.79,1.02-1.27,1.39c-0.48,0.37-1.01,0.65-1.59,0.84s-1.18,0.28-1.81,0.28h-0.18L515.72,954.06z"/>
			</g>
		</g>
		<g>
			<circle class="st4" cx="342" cy="926" r="30"/>
		</g>
		<g>
			<g>
				<path class="st2" d="M331.07,923.9v1.93c0,0.92-0.11,1.73-0.34,2.43s-0.55,1.28-0.98,1.75s-0.92,0.83-1.5,1.06
					s-1.22,0.36-1.92,0.36c-0.71,0-1.35-0.12-1.93-0.36s-1.08-0.59-1.5-1.06s-0.75-1.06-0.98-1.75s-0.34-1.51-0.34-2.43v-1.93
					c0-0.92,0.11-1.73,0.34-2.44s0.55-1.29,0.97-1.76s0.92-0.82,1.5-1.06s1.22-0.36,1.93-0.36c0.7,0,1.35,0.12,1.93,0.36
					s1.08,0.59,1.5,1.06s0.74,1.05,0.97,1.76C330.95,922.17,331.07,922.98,331.07,923.9z M328.02,925.84v-1.95
					c0-0.57-0.04-1.06-0.11-1.47s-0.18-0.73-0.32-0.98s-0.32-0.44-0.53-0.55s-0.46-0.18-0.75-0.18c-0.3,0-0.55,0.06-0.76,0.18
					s-0.39,0.3-0.52,0.55s-0.24,0.58-0.3,0.98s-0.1,0.89-0.1,1.47v1.95c0,0.57,0.03,1.05,0.1,1.45s0.17,0.73,0.3,0.99
					s0.32,0.45,0.53,0.57s0.47,0.18,0.76,0.18c0.28,0,0.53-0.06,0.74-0.18s0.39-0.31,0.53-0.57s0.24-0.59,0.31-0.99
					S328.02,926.41,328.02,925.84z"/>
				<path class="st2" d="M335.64,918.46v12.8h-3.01v-12.8H335.64z M340.22,918.46v2.38h-5.62v-2.38H340.22z M339.46,923.54v2.29
					h-4.87v-2.29H339.46z M340.19,928.89v2.37h-5.6v-2.37H340.19z"/>
				<path class="st2" d="M351.3,918.46v12.8h-2.89v-9.46l-2.33,0.85v-2.25l4.97-1.94H351.3z"/>
				<path class="st2" d="M362.35,923.69v2.34c0,0.92-0.09,1.72-0.28,2.4s-0.45,1.24-0.8,1.69c-0.34,0.45-0.75,0.78-1.22,0.99
					s-0.98,0.32-1.54,0.32c-0.45,0-0.87-0.07-1.26-0.21c-0.4-0.14-0.75-0.35-1.07-0.63s-0.59-0.64-0.82-1.07s-0.4-0.93-0.53-1.52
					s-0.18-1.24-0.18-1.98v-2.34c0-0.93,0.09-1.73,0.28-2.4s0.46-1.24,0.8-1.68c0.35-0.45,0.76-0.78,1.23-0.99s0.98-0.33,1.54-0.33
					c0.45,0,0.86,0.07,1.25,0.21s0.74,0.35,1.06,0.63c0.32,0.28,0.59,0.64,0.82,1.07s0.4,0.93,0.52,1.52
					S362.35,922.96,362.35,923.69z M359.47,926.39v-3.08c0-0.41-0.01-0.77-0.04-1.07s-0.07-0.56-0.13-0.77s-0.13-0.38-0.21-0.51
					c-0.08-0.13-0.17-0.23-0.27-0.29s-0.21-0.09-0.32-0.09c-0.15,0-0.28,0.05-0.4,0.15s-0.22,0.25-0.31,0.46s-0.15,0.49-0.2,0.84
					c-0.04,0.35-0.07,0.78-0.07,1.29v3.08c0,0.42,0.02,0.78,0.05,1.09c0.03,0.31,0.07,0.57,0.13,0.78s0.12,0.39,0.2,0.52
					s0.17,0.23,0.28,0.29s0.21,0.09,0.32,0.09c0.14,0,0.27-0.05,0.38-0.14c0.12-0.09,0.22-0.25,0.3-0.46s0.16-0.5,0.2-0.85
					S359.47,926.91,359.47,926.39z"/>
			</g>
		</g>
		<g>
			<circle class="st4" cx="202" cy="839" r="30"/>
		</g>
		<g>
			<g>
				<path class="st2" d="M191.07,836.9v1.93c0,0.92-0.11,1.73-0.34,2.43s-0.55,1.28-0.98,1.75s-0.92,0.83-1.5,1.06
					s-1.22,0.36-1.92,0.36c-0.71,0-1.35-0.12-1.93-0.36s-1.08-0.59-1.5-1.06s-0.75-1.06-0.98-1.75s-0.34-1.51-0.34-2.43v-1.93
					c0-0.92,0.11-1.73,0.34-2.44s0.55-1.29,0.97-1.76s0.92-0.82,1.5-1.06s1.22-0.36,1.93-0.36c0.7,0,1.35,0.12,1.93,0.36
					s1.08,0.59,1.5,1.06s0.74,1.05,0.97,1.76C190.95,835.17,191.07,835.98,191.07,836.9z M188.02,838.84v-1.95
					c0-0.57-0.04-1.06-0.11-1.47s-0.18-0.73-0.32-0.98s-0.32-0.44-0.53-0.55s-0.46-0.18-0.75-0.18c-0.3,0-0.55,0.06-0.76,0.18
					s-0.39,0.3-0.52,0.55s-0.24,0.58-0.3,0.98s-0.1,0.89-0.1,1.47v1.95c0,0.57,0.03,1.05,0.1,1.45s0.17,0.73,0.3,0.99
					s0.32,0.45,0.53,0.57s0.47,0.18,0.76,0.18c0.28,0,0.53-0.06,0.74-0.18s0.39-0.31,0.53-0.57s0.24-0.59,0.31-0.99
					S188.02,839.41,188.02,838.84z"/>
				<path class="st2" d="M195.64,831.46v12.8h-3.01v-12.8H195.64z M200.22,831.46v2.38h-5.62v-2.38H200.22z M199.46,836.54v2.29
					h-4.87v-2.29H199.46z M200.19,841.89v2.37h-5.6v-2.37H200.19z"/>
				<path class="st2" d="M211.3,831.46v12.8h-2.89v-9.46l-2.33,0.85v-2.25l4.97-1.94H211.3z"/>
				<path class="st2" d="M220.5,831.46v12.8h-2.89v-9.46l-2.33,0.85v-2.25l4.97-1.94H220.5z"/>
			</g>
		</g>
		<g>
			<circle class="st4" cx="105" cy="707" r="30"/>
		</g>
		<g>
			<g>
				<path class="st2" d="M94.07,704.9v1.93c0,0.92-0.11,1.73-0.34,2.43s-0.55,1.28-0.98,1.75s-0.92,0.83-1.5,1.06
					s-1.22,0.36-1.92,0.36c-0.71,0-1.35-0.12-1.93-0.36s-1.08-0.59-1.5-1.06s-0.75-1.06-0.98-1.75s-0.34-1.51-0.34-2.43v-1.93
					c0-0.92,0.11-1.73,0.34-2.44s0.55-1.29,0.97-1.76s0.92-0.82,1.5-1.06s1.22-0.36,1.93-0.36c0.7,0,1.35,0.12,1.93,0.36
					s1.08,0.59,1.5,1.06s0.74,1.05,0.97,1.76C93.95,703.17,94.07,703.98,94.07,704.9z M91.02,706.84v-1.95
					c0-0.57-0.04-1.06-0.11-1.47s-0.18-0.73-0.32-0.98s-0.32-0.44-0.53-0.55s-0.46-0.18-0.75-0.18c-0.3,0-0.55,0.06-0.76,0.18
					s-0.39,0.3-0.52,0.55s-0.24,0.58-0.3,0.98s-0.1,0.89-0.1,1.47v1.95c0,0.57,0.03,1.05,0.1,1.45s0.17,0.73,0.3,0.99
					s0.32,0.45,0.53,0.57s0.47,0.18,0.76,0.18c0.28,0,0.53-0.06,0.74-0.18s0.39-0.31,0.53-0.57s0.24-0.59,0.31-0.99
					S91.02,707.41,91.02,706.84z"/>
				<path class="st2" d="M98.64,699.46v12.8h-3.01v-12.8H98.64z M103.22,699.46v2.38h-5.62v-2.38H103.22z M102.46,704.54v2.29h-4.87
					v-2.29H102.46z M103.19,709.89v2.37h-5.6v-2.37H103.19z"/>
				<path class="st2" d="M114.3,699.46v12.8h-2.89v-9.46l-2.33,0.85v-2.25l4.97-1.94H114.3z"/>
				<path class="st2" d="M125.36,709.97v2.29h-7.71v-1.93l3.45-4.32c0.28-0.42,0.5-0.79,0.67-1.12c0.17-0.33,0.29-0.63,0.36-0.9
					s0.11-0.51,0.11-0.73c0-0.37-0.04-0.68-0.11-0.93s-0.17-0.44-0.3-0.57c-0.13-0.13-0.29-0.19-0.49-0.19
					c-0.21,0-0.39,0.09-0.54,0.26s-0.27,0.42-0.35,0.72c-0.08,0.3-0.12,0.65-0.12,1.03h-2.9c0-0.79,0.17-1.5,0.5-2.15
					s0.8-1.17,1.4-1.56s1.29-0.58,2.08-0.58c0.82,0,1.51,0.15,2.06,0.44c0.55,0.29,0.97,0.72,1.25,1.27s0.42,1.22,0.42,2
					c0,0.45-0.06,0.87-0.18,1.28s-0.29,0.82-0.51,1.22s-0.5,0.81-0.83,1.23s-0.71,0.87-1.13,1.35l-1.06,1.91H125.36z"/>
			</g>
		</g>
		<g>
			<circle class="st4" cx="52" cy="546" r="30"/>
		</g>
		<g>
			<g>
				<path class="st2" d="M41.07,543.9v1.93c0,0.92-0.11,1.73-0.34,2.43s-0.55,1.28-0.98,1.75s-0.92,0.83-1.5,1.06
					s-1.22,0.36-1.92,0.36c-0.71,0-1.35-0.12-1.93-0.36s-1.08-0.59-1.5-1.06s-0.75-1.06-0.98-1.75s-0.34-1.51-0.34-2.43v-1.93
					c0-0.92,0.11-1.73,0.34-2.44s0.55-1.29,0.97-1.76s0.92-0.82,1.5-1.06s1.22-0.36,1.93-0.36c0.7,0,1.35,0.12,1.93,0.36
					s1.08,0.59,1.5,1.06s0.74,1.05,0.97,1.76C40.95,542.17,41.07,542.98,41.07,543.9z M38.02,545.84v-1.95
					c0-0.57-0.04-1.06-0.11-1.47s-0.18-0.73-0.32-0.98s-0.32-0.44-0.53-0.55s-0.46-0.18-0.75-0.18c-0.3,0-0.55,0.06-0.76,0.18
					s-0.39,0.3-0.52,0.55s-0.24,0.58-0.3,0.98s-0.1,0.89-0.1,1.47v1.95c0,0.57,0.03,1.05,0.1,1.45s0.17,0.73,0.3,0.99
					s0.32,0.45,0.53,0.57s0.47,0.18,0.76,0.18c0.28,0,0.53-0.06,0.74-0.18s0.39-0.31,0.53-0.57s0.24-0.59,0.31-0.99
					S38.02,546.41,38.02,545.84z"/>
				<path class="st2" d="M45.64,538.46v12.8h-3.01v-12.8H45.64z M50.22,538.46v2.38h-5.62v-2.38H50.22z M49.46,543.54v2.29h-4.87
					v-2.29H49.46z M50.19,548.89v2.37h-5.6v-2.37H50.19z"/>
				<path class="st2" d="M61.3,538.46v12.8h-2.89v-9.46l-2.33,0.85v-2.25l4.97-1.94H61.3z"/>
				<path class="st2" d="M66.98,545.83v-1.48h1.78c0.54,0,1.03,0.07,1.48,0.22s0.83,0.36,1.15,0.64s0.57,0.63,0.74,1.04
					s0.26,0.89,0.26,1.42c0,0.6-0.11,1.13-0.32,1.6s-0.51,0.86-0.89,1.19s-0.82,0.57-1.33,0.73s-1.05,0.25-1.64,0.25
					c-0.46,0-0.91-0.07-1.37-0.21s-0.87-0.37-1.24-0.67s-0.68-0.69-0.91-1.16s-0.34-1.04-0.34-1.69h2.9c0,0.27,0.05,0.51,0.15,0.73
					s0.23,0.39,0.39,0.52s0.33,0.19,0.51,0.19c0.25,0,0.47-0.07,0.64-0.21s0.31-0.32,0.4-0.56s0.14-0.5,0.14-0.78
					c0-0.43-0.05-0.78-0.14-1.04s-0.23-0.45-0.41-0.56s-0.41-0.18-0.68-0.18H66.98z M66.98,543.62h1.28c0.25,0,0.45-0.07,0.61-0.2
					s0.28-0.32,0.35-0.56s0.11-0.53,0.11-0.87c0-0.26-0.04-0.49-0.11-0.71c-0.07-0.22-0.19-0.39-0.33-0.52
					c-0.15-0.13-0.34-0.2-0.57-0.2c-0.14,0-0.28,0.05-0.43,0.14s-0.26,0.23-0.36,0.41s-0.14,0.39-0.14,0.64h-2.89
					c0-0.73,0.17-1.35,0.52-1.87s0.8-0.92,1.37-1.2c0.56-0.28,1.18-0.42,1.83-0.42c0.79,0,1.48,0.14,2.07,0.42s1.07,0.69,1.41,1.23
					s0.51,1.21,0.51,2.01c0,0.44-0.09,0.85-0.26,1.24s-0.42,0.73-0.74,1.02s-0.68,0.52-1.1,0.69s-0.87,0.25-1.36,0.25h-1.78V543.62z
					"/>
			</g>
		</g>
		<g>
			<circle class="st4" cx="75" cy="382" r="30"/>
		</g>
		<g>
			<g>
				<path class="st2" d="M64.07,379.9v1.93c0,0.92-0.11,1.73-0.34,2.43s-0.55,1.28-0.98,1.75s-0.92,0.83-1.5,1.06
					s-1.22,0.36-1.92,0.36c-0.71,0-1.35-0.12-1.93-0.36s-1.08-0.59-1.5-1.06s-0.75-1.06-0.98-1.75s-0.34-1.51-0.34-2.43v-1.93
					c0-0.92,0.11-1.73,0.34-2.43s0.55-1.29,0.97-1.76s0.92-0.82,1.5-1.06s1.22-0.36,1.93-0.36c0.7,0,1.35,0.12,1.93,0.36
					s1.08,0.59,1.5,1.06s0.74,1.05,0.97,1.76C63.95,378.17,64.07,378.98,64.07,379.9z M61.02,381.84v-1.95
					c0-0.57-0.04-1.06-0.11-1.47s-0.18-0.73-0.32-0.98s-0.32-0.44-0.53-0.55s-0.46-0.18-0.75-0.18c-0.3,0-0.55,0.06-0.76,0.18
					s-0.39,0.3-0.52,0.55s-0.24,0.58-0.3,0.98s-0.1,0.89-0.1,1.47v1.95c0,0.57,0.03,1.05,0.1,1.45s0.17,0.73,0.3,0.99
					s0.32,0.45,0.53,0.57s0.47,0.18,0.76,0.18c0.28,0,0.53-0.06,0.74-0.18s0.39-0.31,0.53-0.57s0.24-0.59,0.31-0.99
					S61.02,382.41,61.02,381.84z"/>
				<path class="st2" d="M68.64,374.46v12.8h-3.01v-12.8H68.64z M73.22,374.46v2.38h-5.62v-2.38H73.22z M72.46,379.54v2.29h-4.87
					v-2.29H72.46z M73.19,384.89v2.37h-5.6v-2.37H73.19z"/>
				<path class="st2" d="M84.3,374.46v12.8h-2.89v-9.46l-2.33,0.85v-2.25l4.97-1.94H84.3z"/>
				<path class="st2" d="M95.44,382.26v2.29h-7.79l-0.18-1.81l4.17-8.27h2.26l-2.36,4.16l-1.34,3.64H95.44z M94.51,374.46v12.8
					h-2.89v-12.8H94.51z"/>
			</g>
		</g>
		<g>
			<circle class="st4" cx="149" cy="241" r="30"/>
		</g>
		<g>
			<g>
				<path class="st2" d="M138.07,238.9v1.93c0,0.92-0.11,1.73-0.34,2.43s-0.55,1.28-0.98,1.75s-0.92,0.83-1.5,1.06
					s-1.22,0.36-1.92,0.36c-0.71,0-1.35-0.12-1.93-0.36s-1.08-0.59-1.5-1.06s-0.75-1.06-0.98-1.75s-0.34-1.51-0.34-2.43v-1.93
					c0-0.92,0.11-1.73,0.34-2.43s0.55-1.29,0.97-1.76s0.92-0.82,1.5-1.06s1.22-0.36,1.93-0.36c0.7,0,1.35,0.12,1.93,0.36
					s1.08,0.59,1.5,1.06s0.74,1.05,0.97,1.76C137.95,237.17,138.07,237.98,138.07,238.9z M135.02,240.84v-1.95
					c0-0.57-0.04-1.06-0.11-1.47s-0.18-0.73-0.32-0.98s-0.32-0.44-0.53-0.55s-0.46-0.18-0.75-0.18c-0.3,0-0.55,0.06-0.76,0.18
					s-0.39,0.3-0.52,0.55s-0.24,0.58-0.3,0.98s-0.1,0.89-0.1,1.47v1.95c0,0.57,0.03,1.05,0.1,1.45s0.17,0.73,0.3,0.99
					s0.32,0.45,0.53,0.57s0.47,0.18,0.76,0.18c0.28,0,0.53-0.06,0.74-0.18s0.39-0.31,0.53-0.57s0.24-0.59,0.31-0.99
					S135.02,241.41,135.02,240.84z"/>
				<path class="st2" d="M142.64,233.46v12.8h-3.01v-12.8H142.64z M147.22,233.46v2.38h-5.62v-2.38H147.22z M146.46,238.54v2.29
					h-4.87v-2.29H146.46z M147.19,243.89v2.37h-5.6v-2.37H147.19z"/>
				<path class="st2" d="M158.3,233.46v12.8h-2.89v-9.46l-2.33,0.85v-2.25l4.97-1.94H158.3z"/>
				<path class="st2" d="M164.01,240.56l-2.29-0.55l0.68-6.54h6.49v2.3h-4.14l-0.2,2.54c0.11-0.08,0.29-0.18,0.54-0.29
					s0.54-0.17,0.86-0.17c0.54,0,1.03,0.1,1.44,0.29s0.77,0.47,1.05,0.83c0.28,0.37,0.5,0.82,0.64,1.35s0.22,1.14,0.22,1.83
					c0,0.55-0.08,1.08-0.23,1.6s-0.39,0.97-0.72,1.38s-0.73,0.73-1.21,0.97s-1.06,0.36-1.71,0.36c-0.49,0-0.96-0.09-1.43-0.26
					c-0.47-0.18-0.89-0.43-1.27-0.76c-0.38-0.33-0.68-0.73-0.89-1.2s-0.32-1-0.3-1.59h2.9c0.01,0.31,0.05,0.58,0.14,0.81
					c0.08,0.23,0.2,0.41,0.34,0.53s0.31,0.19,0.49,0.19c0.21,0,0.38-0.06,0.51-0.18s0.24-0.28,0.31-0.48s0.12-0.44,0.15-0.71
					c0.03-0.27,0.04-0.55,0.04-0.85c0-0.32-0.02-0.6-0.07-0.85c-0.04-0.25-0.12-0.47-0.22-0.65c-0.1-0.18-0.24-0.31-0.4-0.41
					s-0.37-0.14-0.61-0.14c-0.32,0-0.57,0.07-0.75,0.22S164.07,240.4,164.01,240.56z"/>
			</g>
		</g>
		<g>
			<circle class="st4" cx="266" cy="133" r="30"/>
		</g>
		<g>
			<g>
				<path class="st2" d="M255.07,130.9v1.93c0,0.92-0.11,1.73-0.34,2.43s-0.55,1.28-0.98,1.75s-0.92,0.83-1.5,1.06
					s-1.22,0.36-1.92,0.36c-0.71,0-1.35-0.12-1.93-0.36s-1.08-0.59-1.5-1.06s-0.75-1.06-0.98-1.75s-0.34-1.51-0.34-2.43v-1.93
					c0-0.92,0.11-1.73,0.34-2.43s0.55-1.29,0.97-1.76s0.92-0.82,1.5-1.06s1.22-0.36,1.93-0.36c0.7,0,1.35,0.12,1.93,0.36
					s1.08,0.59,1.5,1.06s0.74,1.05,0.97,1.76C254.95,129.17,255.07,129.98,255.07,130.9z M252.02,132.84v-1.95
					c0-0.57-0.04-1.06-0.11-1.47s-0.18-0.73-0.32-0.98s-0.32-0.44-0.53-0.55s-0.46-0.18-0.75-0.18c-0.3,0-0.55,0.06-0.76,0.18
					s-0.39,0.3-0.52,0.55s-0.24,0.58-0.3,0.98s-0.1,0.89-0.1,1.47v1.95c0,0.57,0.03,1.05,0.1,1.45s0.17,0.73,0.3,0.99
					s0.32,0.45,0.53,0.57s0.47,0.18,0.76,0.18c0.28,0,0.53-0.06,0.74-0.18s0.39-0.31,0.53-0.57s0.24-0.59,0.31-0.99
					S252.02,133.41,252.02,132.84z"/>
				<path class="st2" d="M259.64,125.46v12.8h-3.01v-12.8H259.64z M264.22,125.46v2.38h-5.62v-2.38H264.22z M263.46,130.54v2.29
					h-4.87v-2.29H263.46z M264.19,135.89v2.37h-5.6v-2.37H264.19z"/>
				<path class="st2" d="M275.3,125.46v12.8h-2.89v-9.46l-2.33,0.85v-2.25l4.97-1.94H275.3z"/>
				<path class="st2" d="M284.39,125.28h0.45v2.33h-0.13c-0.45,0-0.86,0.08-1.25,0.24s-0.73,0.4-1.02,0.72s-0.52,0.72-0.68,1.21
					s-0.24,1.06-0.24,1.71v2.24c0,0.41,0.02,0.77,0.07,1.07c0.04,0.3,0.11,0.56,0.19,0.76c0.08,0.2,0.2,0.35,0.33,0.45
					c0.14,0.1,0.3,0.15,0.49,0.15c0.15,0,0.29-0.05,0.43-0.16c0.13-0.11,0.25-0.25,0.34-0.45c0.1-0.19,0.17-0.42,0.22-0.68
					s0.08-0.54,0.08-0.84c0-0.33-0.03-0.62-0.09-0.89c-0.06-0.26-0.14-0.49-0.25-0.67s-0.23-0.33-0.37-0.42s-0.29-0.15-0.45-0.15
					c-0.28,0-0.5,0.08-0.67,0.25s-0.3,0.38-0.37,0.64s-0.11,0.52-0.11,0.78l-0.65-0.72c-0.01-0.35,0.04-0.71,0.15-1.09
					c0.12-0.38,0.29-0.72,0.52-1.05s0.53-0.58,0.89-0.78c0.36-0.2,0.78-0.3,1.27-0.3c0.49,0,0.93,0.11,1.3,0.33s0.69,0.53,0.95,0.93
					s0.45,0.86,0.58,1.4c0.13,0.53,0.2,1.11,0.2,1.73c0,0.63-0.1,1.21-0.29,1.74s-0.46,1-0.8,1.4c-0.34,0.4-0.75,0.71-1.23,0.93
					s-1,0.33-1.57,0.33c-0.58,0-1.12-0.12-1.6-0.35c-0.49-0.23-0.92-0.57-1.29-1.01s-0.66-0.98-0.86-1.62
					c-0.2-0.64-0.3-1.36-0.3-2.17v-1.08c0-1.1,0.15-2.07,0.46-2.93c0.31-0.86,0.73-1.58,1.27-2.18c0.54-0.59,1.15-1.05,1.85-1.36
					C282.9,125.43,283.62,125.28,284.39,125.28z"/>
			</g>
		</g>
		<g>
			<circle class="st4" cx="423" cy="71" r="30"/>
		</g>
		<g>
			<g>
				<path class="st2" d="M412.07,68.9v1.93c0,0.92-0.11,1.73-0.34,2.43s-0.55,1.28-0.98,1.75s-0.92,0.83-1.5,1.06
					s-1.22,0.36-1.92,0.36c-0.71,0-1.35-0.12-1.93-0.36s-1.08-0.59-1.5-1.06s-0.75-1.06-0.98-1.75s-0.34-1.51-0.34-2.43V68.9
					c0-0.92,0.11-1.73,0.34-2.43s0.55-1.29,0.97-1.76s0.92-0.82,1.5-1.06s1.22-0.36,1.93-0.36c0.7,0,1.35,0.12,1.93,0.36
					s1.08,0.59,1.5,1.06s0.74,1.05,0.97,1.76C411.95,67.17,412.07,67.98,412.07,68.9z M409.02,70.84v-1.95
					c0-0.57-0.04-1.06-0.11-1.47s-0.18-0.73-0.32-0.98s-0.32-0.44-0.53-0.55s-0.46-0.18-0.75-0.18c-0.3,0-0.55,0.06-0.76,0.18
					s-0.39,0.3-0.52,0.55s-0.24,0.58-0.3,0.98s-0.1,0.89-0.1,1.47v1.95c0,0.57,0.03,1.05,0.1,1.45s0.17,0.73,0.3,0.99
					s0.32,0.45,0.53,0.57s0.47,0.18,0.76,0.18c0.28,0,0.53-0.06,0.74-0.18s0.39-0.31,0.53-0.57s0.24-0.59,0.31-0.99
					S409.02,71.41,409.02,70.84z"/>
				<path class="st2" d="M416.64,63.46v12.8h-3.01v-12.8H416.64z M421.22,63.46v2.38h-5.62v-2.38H421.22z M420.46,68.54v2.29h-4.87
					v-2.29H420.46z M421.19,73.89v2.37h-5.6v-2.37H421.19z"/>
				<path class="st2" d="M432.3,63.46v12.8h-2.89V66.8l-2.33,0.85v-2.25l4.97-1.94H432.3z"/>
				<path class="st2" d="M443.35,63.46v1.58l-3.88,11.21h-3.05l3.9-10.51h-4.89v-2.29H443.35z"/>
			</g>
		</g>
	</g>
	<g>
		<path class="st5" d="M495.66,312.99V221.8c-149.65,5.17-270.01,125.54-275.18,275.18h95.59
			C319.59,398.41,397.69,318.84,495.66,312.99z"/>
		<path class="st6" d="M698.39,496.99h92.51c-5.17-149.65-125.54-270.01-275.18-275.18v91.02
			C615.13,317.17,694.84,397.37,698.39,496.99z"/>
		<path class="st7" d="M316.39,517.04h-95.91c5.17,149.65,125.54,270.01,275.18,275.18v-97.36
			C399.74,689.15,322.87,612.76,316.39,517.04z"/>
		<path class="st8" d="M698.03,517.82c-6.9,96.12-84.8,172.58-181.54,177.19v98c149.65-5.17,270.01-125.54,275.18-275.18H698.03z"/>
		<g>
			<circle class="st4" cx="679.74" cy="346.47" r="29.61"/>
		</g>
		<g>
			<g>
				<path class="st2" d="M663.92,339.03v12.63h-2.97v-12.63H663.92z M668.19,349.32v2.34h-5.31v-2.34H668.19z"/>
				<path class="st2" d="M672.57,339.03v12.63h-2.96v-12.63H672.57z"/>
				<path class="st2" d="M683.53,339.03v12.63h-2.96l-3.17-7.86v7.86h-2.97v-12.63h2.97l3.17,7.86v-7.86H683.53z"/>
				<path class="st2" d="M695,339.03v12.63h-2.85v-9.33l-2.3,0.84v-2.22l4.9-1.92H695z"/>
			</g>
		</g>
		<g>
			<circle class="st4" cx="672.64" cy="672.19" r="29.61"/>
		</g>
		<g>
			<g>
				<path class="st2" d="M656.81,664.75v12.63h-2.97v-12.63H656.81z M661.08,675.04v2.34h-5.31v-2.34H661.08z"/>
				<path class="st2" d="M665.46,664.75v12.63h-2.96v-12.63H665.46z"/>
				<path class="st2" d="M676.43,664.75v12.63h-2.96l-3.17-7.86v7.86h-2.97v-12.63h2.97l3.17,7.86v-7.86H676.43z"/>
				<path class="st2" d="M689.73,675.12v2.26h-7.61v-1.91l3.4-4.27c0.28-0.41,0.5-0.78,0.66-1.11c0.17-0.33,0.29-0.62,0.36-0.89
					c0.07-0.27,0.11-0.51,0.11-0.72c0-0.36-0.03-0.67-0.1-0.92c-0.07-0.25-0.17-0.43-0.3-0.56c-0.13-0.13-0.29-0.19-0.48-0.19
					c-0.21,0-0.39,0.09-0.54,0.26c-0.15,0.17-0.26,0.41-0.34,0.71s-0.12,0.64-0.12,1.01h-2.86c0-0.77,0.17-1.48,0.49-2.12
					c0.33-0.64,0.79-1.16,1.38-1.54s1.28-0.58,2.06-0.58c0.81,0,1.49,0.14,2.03,0.43c0.55,0.29,0.96,0.71,1.23,1.25
					c0.27,0.55,0.41,1.21,0.41,1.97c0,0.44-0.06,0.86-0.17,1.27c-0.12,0.41-0.28,0.81-0.5,1.2c-0.22,0.4-0.49,0.8-0.82,1.22
					c-0.32,0.42-0.7,0.86-1.12,1.33l-1.05,1.88H689.73z"/>
			</g>
		</g>
		<g>
			<circle class="st4" cx="335.07" cy="672.19" r="29.61"/>
		</g>
		<g>
			<g>
				<path class="st2" d="M319.25,664.75v12.63h-2.97v-12.63H319.25z M323.52,675.04v2.34h-5.31v-2.34H323.52z"/>
				<path class="st2" d="M327.9,664.75v12.63h-2.96v-12.63H327.9z"/>
				<path class="st2" d="M338.86,664.75v12.63h-2.96l-3.17-7.86v7.86h-2.97v-12.63h2.97l3.17,7.86v-7.86H338.86z"/>
				<path class="st2" d="M346.85,672.02v-1.46h1.75c0.53,0,1.02,0.07,1.46,0.21c0.44,0.14,0.82,0.35,1.13,0.63
					c0.32,0.28,0.56,0.62,0.73,1.03c0.17,0.41,0.26,0.88,0.26,1.4c0,0.59-0.1,1.12-0.31,1.58c-0.21,0.46-0.5,0.85-0.88,1.17
					s-0.81,0.56-1.31,0.72c-0.5,0.17-1.04,0.25-1.62,0.25c-0.45,0-0.9-0.07-1.35-0.21s-0.86-0.36-1.23-0.66s-0.67-0.68-0.89-1.15
					c-0.22-0.46-0.34-1.02-0.34-1.67h2.86c0,0.27,0.05,0.51,0.15,0.72c0.1,0.22,0.23,0.39,0.39,0.52c0.16,0.13,0.33,0.19,0.51,0.19
					c0.25,0,0.46-0.07,0.63-0.2s0.31-0.32,0.4-0.55c0.09-0.23,0.14-0.49,0.14-0.77c0-0.43-0.05-0.77-0.14-1.02
					c-0.09-0.25-0.23-0.44-0.41-0.55c-0.18-0.12-0.4-0.17-0.67-0.17H346.85z M346.85,669.84h1.27c0.24,0,0.44-0.06,0.6-0.19
					c0.16-0.13,0.27-0.32,0.35-0.56s0.11-0.52,0.11-0.85c0-0.25-0.04-0.49-0.11-0.7c-0.07-0.21-0.18-0.39-0.33-0.52
					s-0.33-0.2-0.56-0.2c-0.14,0-0.28,0.05-0.42,0.14c-0.14,0.09-0.26,0.23-0.35,0.4c-0.09,0.17-0.14,0.38-0.14,0.63h-2.85
					c0-0.72,0.17-1.33,0.51-1.84c0.34-0.51,0.79-0.9,1.35-1.18c0.56-0.27,1.16-0.41,1.81-0.41c0.77,0,1.46,0.14,2.05,0.41
					c0.59,0.28,1.05,0.68,1.39,1.21c0.34,0.54,0.5,1.2,0.5,1.98c0,0.43-0.09,0.84-0.26,1.22c-0.17,0.38-0.42,0.72-0.73,1.01
					s-0.67,0.52-1.08,0.68c-0.41,0.17-0.86,0.25-1.34,0.25h-1.75V669.84z"/>
			</g>
		</g>
		<g>
			<circle class="st4" cx="322.04" cy="346.47" r="29.61"/>
		</g>
		<g>
			<g>
				<path class="st2" d="M306.22,339.03v12.63h-2.97v-12.63H306.22z M310.49,349.32v2.34h-5.31v-2.34H310.49z"/>
				<path class="st2" d="M314.87,339.03v12.63h-2.96v-12.63H314.87z"/>
				<path class="st2" d="M325.83,339.03v12.63h-2.96l-3.17-7.86v7.86h-2.97v-12.63h2.97l3.17,7.86v-7.86H325.83z"/>
				<path class="st2" d="M339.22,346.72v2.26h-7.69l-0.17-1.79l4.11-8.16h2.23l-2.33,4.1l-1.33,3.59H339.22z M338.3,339.03v12.63
					h-2.85v-12.63H338.3z"/>
			</g>
		</g>
	</g>
</g>
</svg>
