<?xml version="1.0" encoding="utf-8"?>
<!-- Generator: Adobe Illustrator 28.2.0, SVG Export Plug-In . SVG Version: 6.00 Build 0)  -->
<svg version="1.1" id="Capa_1" xmlns="http://www.w3.org/2000/svg" xmlns:xlink="http://www.w3.org/1999/xlink" x="0px" y="0px"
	 viewBox="0 0 693.37 400.91" style="enable-background:new 0 0 693.37 400.91;" xml:space="preserve">
<style type="text/css">
	.st0{fill:#003131;}
	.st1{fill:#005655;}
	.st2{fill:#008884;}
	.st3{fill:#009C9A;}
	.st4{fill:#00A0A6;}
	.st5{fill:#11AFBA;}
	.st6{fill:#79C4CE;}
	.st7{fill:#737277;}
	.st8{fill:#89878C;stroke:#737277;stroke-width:2;stroke-miterlimit:10;}
	.st9{fill:#001614;}
</style>
<polygon onclick="window.location.href = &quot;https://www.google.com&quot;;" class="st0" points="230.47,3.15 204.85,47.53 
	256.1,47.53 "/>
<polygon class="st1" points="171.15,105.9 289.8,105.9 264.18,61.53 196.77,61.53 "/>
<polygon class="st2" points="137.45,164.28 323.5,164.28 297.88,119.9 163.07,119.9 "/>
<polygon class="st3" points="116.55,200.47 103.74,222.66 357.21,222.66 344.4,200.47 331.59,178.28 129.36,178.28 "/>
<polygon class="st4" points="70.04,281.03 390.91,281.03 365.29,236.66 95.66,236.66 "/>
<polygon class="st5" points="36.33,339.41 424.62,339.41 398.99,295.03 61.95,295.03 "/>
<polygon class="st6" points="2.63,397.79 230.47,397.79 458.32,397.79 432.7,353.41 28.25,353.41 "/>
<circle class="st7" cx="230.47" cy="31.63" r="4.19"/>
<line class="st8" x1="451.7" y1="31.63" x2="230.47" y2="31.63"/>
<g>
	<g>
		<path class="st9" d="M458.76,18.75h3.36l0.64,13.08v3.98h-4.01V18.75z M460.77,18.75h3.25l2.68,11.87l2.68-11.87h3.23l-4.59,17.06
			h-2.65L460.77,18.75z M471.25,18.75h3.38v17.06h-4.02v-3.98L471.25,18.75z"/>
		<path class="st9" d="M476.84,19.86c0-0.56,0.19-1.02,0.58-1.38s0.89-0.54,1.51-0.54c0.62,0,1.13,0.18,1.51,0.54
			s0.57,0.82,0.57,1.38s-0.19,1.02-0.57,1.38s-0.89,0.54-1.51,0.54c-0.62,0-1.12-0.18-1.51-0.54S476.84,20.43,476.84,19.86z
			 M480.87,23.13v12.68h-3.84V23.13H480.87z"/>
		<path class="st9" d="M488.52,32.37c0-0.23-0.08-0.41-0.25-0.54s-0.39-0.27-0.69-0.41s-0.65-0.33-1.07-0.56
			c-0.5-0.23-0.97-0.47-1.41-0.72s-0.83-0.53-1.16-0.84s-0.59-0.66-0.78-1.07s-0.28-0.88-0.28-1.42c0-0.55,0.1-1.05,0.3-1.52
			s0.49-0.88,0.88-1.24s0.87-0.63,1.43-0.84s1.21-0.3,1.93-0.3c0.99,0,1.85,0.16,2.57,0.49s1.27,0.79,1.66,1.39s0.59,1.31,0.59,2.13
			h-3.84c0-0.32-0.03-0.58-0.08-0.79s-0.15-0.36-0.3-0.46s-0.35-0.15-0.6-0.15c-0.13,0-0.27,0.04-0.41,0.12s-0.26,0.2-0.35,0.36
			s-0.14,0.36-0.14,0.6c0,0.17,0.03,0.32,0.1,0.44s0.16,0.23,0.29,0.34s0.27,0.21,0.44,0.32s0.37,0.23,0.59,0.36
			c0.67,0.26,1.34,0.54,1.99,0.84s1.21,0.71,1.65,1.23s0.66,1.22,0.66,2.12c0,0.56-0.11,1.07-0.34,1.54s-0.55,0.86-0.97,1.21
			s-0.92,0.61-1.52,0.79s-1.26,0.27-2,0.27c-1.05,0-1.93-0.21-2.65-0.62s-1.27-0.94-1.63-1.58s-0.55-1.3-0.55-1.98h3.57
			c0.01,0.39,0.07,0.7,0.18,0.93s0.26,0.39,0.46,0.49s0.44,0.15,0.74,0.15c0.23,0,0.41-0.04,0.56-0.12s0.26-0.2,0.33-0.36
			S488.52,32.6,488.52,32.37z"/>
		<path class="st9" d="M493.98,19.86c0-0.56,0.19-1.02,0.58-1.38s0.89-0.54,1.51-0.54c0.62,0,1.13,0.18,1.51,0.54
			s0.57,0.82,0.57,1.38s-0.19,1.02-0.57,1.38s-0.89,0.54-1.51,0.54c-0.62,0-1.12-0.18-1.51-0.54S493.98,20.43,493.98,19.86z
			 M498.01,23.13v12.68h-3.84V23.13H498.01z"/>
		<path class="st9" d="M499.88,30.07v-1.18c0-1,0.12-1.87,0.38-2.62s0.61-1.37,1.07-1.86s1.01-0.87,1.65-1.12s1.36-0.38,2.14-0.38
			c0.8,0,1.53,0.13,2.17,0.38s1.19,0.63,1.65,1.12s0.82,1.12,1.07,1.86s0.38,1.62,0.38,2.62v1.18c0,0.99-0.12,1.86-0.38,2.61
			s-0.6,1.38-1.06,1.88s-1.01,0.87-1.65,1.12s-1.36,0.37-2.15,0.37s-1.51-0.12-2.16-0.37s-1.2-0.62-1.66-1.12s-0.82-1.12-1.07-1.88
			S499.88,31.06,499.88,30.07z M503.33,21.49l2.32-3.68h4.17l-3.27,3.68H503.33z M503.74,28.89v1.18c0,0.54,0.03,1,0.09,1.38
			s0.15,0.68,0.28,0.91s0.27,0.4,0.44,0.5s0.37,0.15,0.6,0.15c0.29,0,0.53-0.05,0.71-0.15s0.33-0.27,0.43-0.5s0.17-0.54,0.21-0.91
			s0.05-0.84,0.05-1.38v-1.18c0-0.53-0.03-0.98-0.09-1.35s-0.15-0.68-0.27-0.91s-0.27-0.41-0.45-0.52s-0.38-0.16-0.61-0.16
			c-0.22,0-0.41,0.05-0.59,0.16s-0.32,0.28-0.43,0.52s-0.21,0.54-0.27,0.91S503.74,28.36,503.74,28.89z"/>
		<path class="st9" d="M515.87,25.84v9.97h-3.86V23.13h3.61L515.87,25.84z M515.41,29.04l-0.87,0.02c-0.02-0.97,0.07-1.83,0.26-2.6
			s0.47-1.41,0.83-1.94s0.8-0.94,1.31-1.21s1.07-0.42,1.7-0.42c0.48,0,0.92,0.09,1.33,0.26s0.76,0.45,1.06,0.83s0.53,0.89,0.69,1.52
			s0.25,1.4,0.25,2.33v7.98h-3.87v-7.99c0-0.51-0.04-0.9-0.13-1.17s-0.23-0.46-0.41-0.56s-0.42-0.15-0.7-0.15
			c-0.27,0-0.51,0.08-0.7,0.23s-0.34,0.37-0.46,0.65s-0.19,0.6-0.23,0.98S515.41,28.6,515.41,29.04z"/>
	</g>
</g>
<circle class="st7" cx="230.47" cy="83.71" r="4.19"/>
<line class="st8" x1="451.7" y1="83.71" x2="230.47" y2="83.71"/>
<g>
	<g>
		<path class="st9" d="M462.19,70.84l2.64,13.04l0.52,4.02h-2.92l-4.71-17.06H462.19z M464.4,83.88l2.62-13.04h4.5l-4.73,17.06
			h-2.88L464.4,83.88z"/>
		<path class="st9" d="M472.67,71.95c0-0.56,0.19-1.02,0.58-1.38s0.89-0.54,1.51-0.54c0.62,0,1.13,0.18,1.51,0.54
			s0.57,0.82,0.57,1.38s-0.19,1.02-0.57,1.38s-0.89,0.54-1.51,0.54c-0.62,0-1.12-0.18-1.51-0.54S472.67,72.51,472.67,71.95z
			 M476.7,75.22V87.9h-3.84V75.22H476.7z"/>
		<path class="st9" d="M484.34,84.46c0-0.23-0.08-0.41-0.25-0.54s-0.39-0.27-0.69-0.41s-0.65-0.33-1.07-0.56
			c-0.5-0.23-0.97-0.47-1.41-0.72s-0.83-0.53-1.16-0.84s-0.59-0.66-0.78-1.07s-0.28-0.88-0.28-1.42c0-0.55,0.1-1.05,0.3-1.52
			s0.49-0.88,0.88-1.24s0.87-0.63,1.43-0.84s1.21-0.3,1.93-0.3c0.99,0,1.85,0.16,2.57,0.49s1.27,0.79,1.66,1.39s0.59,1.31,0.59,2.13
			h-3.84c0-0.32-0.03-0.58-0.08-0.79s-0.15-0.36-0.3-0.46s-0.35-0.15-0.6-0.15c-0.13,0-0.27,0.04-0.41,0.12s-0.26,0.2-0.35,0.36
			s-0.14,0.36-0.14,0.6c0,0.17,0.03,0.32,0.1,0.44s0.16,0.23,0.29,0.34s0.27,0.21,0.44,0.32s0.37,0.23,0.59,0.36
			c0.67,0.26,1.34,0.54,1.99,0.84s1.21,0.71,1.65,1.23s0.66,1.22,0.66,2.12c0,0.56-0.11,1.07-0.34,1.54s-0.55,0.86-0.97,1.21
			s-0.92,0.61-1.52,0.79s-1.26,0.27-2,0.27c-1.05,0-1.93-0.21-2.65-0.62s-1.27-0.94-1.63-1.58s-0.55-1.3-0.55-1.98h3.57
			c0.01,0.39,0.07,0.7,0.18,0.93s0.26,0.39,0.46,0.49s0.44,0.15,0.74,0.15c0.23,0,0.41-0.04,0.56-0.12s0.26-0.2,0.33-0.36
			S484.34,84.68,484.34,84.46z"/>
		<path class="st9" d="M489.8,71.95c0-0.56,0.19-1.02,0.58-1.38s0.89-0.54,1.51-0.54c0.62,0,1.13,0.18,1.51,0.54
			s0.57,0.82,0.57,1.38s-0.19,1.02-0.57,1.38s-0.89,0.54-1.51,0.54c-0.62,0-1.12-0.18-1.51-0.54S489.8,72.51,489.8,71.95z
			 M493.84,75.22V87.9h-3.84V75.22H493.84z"/>
		<path class="st9" d="M495.71,82.16v-1.18c0-1,0.12-1.87,0.38-2.62s0.61-1.37,1.07-1.86s1.01-0.87,1.65-1.12s1.36-0.38,2.14-0.38
			c0.8,0,1.53,0.13,2.17,0.38s1.19,0.63,1.65,1.12s0.82,1.12,1.07,1.86s0.38,1.62,0.38,2.62v1.18c0,0.99-0.12,1.86-0.38,2.61
			s-0.6,1.38-1.06,1.88s-1.01,0.87-1.65,1.12s-1.36,0.37-2.15,0.37s-1.51-0.12-2.16-0.37s-1.2-0.62-1.66-1.12s-0.82-1.12-1.07-1.88
			S495.71,83.15,495.71,82.16z M499.16,73.58l2.32-3.68h4.17l-3.27,3.68H499.16z M499.57,80.97v1.18c0,0.54,0.03,1,0.09,1.38
			s0.15,0.68,0.28,0.91s0.27,0.4,0.44,0.5s0.37,0.15,0.6,0.15c0.29,0,0.53-0.05,0.71-0.15s0.33-0.27,0.43-0.5s0.17-0.54,0.21-0.91
			s0.05-0.84,0.05-1.38v-1.18c0-0.53-0.03-0.98-0.09-1.35s-0.15-0.68-0.27-0.91s-0.27-0.41-0.45-0.52s-0.38-0.16-0.61-0.16
			c-0.22,0-0.41,0.05-0.59,0.16s-0.32,0.28-0.43,0.52s-0.21,0.54-0.27,0.91S499.57,80.44,499.57,80.97z"/>
		<path class="st9" d="M511.69,77.93v9.97h-3.86V75.22h3.61L511.69,77.93z M511.24,81.13l-0.87,0.02c-0.02-0.97,0.07-1.83,0.26-2.6
			s0.47-1.41,0.83-1.94s0.8-0.94,1.31-1.21s1.07-0.42,1.7-0.42c0.48,0,0.92,0.09,1.33,0.26s0.76,0.45,1.06,0.83s0.53,0.89,0.69,1.52
			s0.25,1.4,0.25,2.33v7.98h-3.87v-7.99c0-0.51-0.04-0.9-0.13-1.17s-0.23-0.46-0.41-0.56s-0.42-0.15-0.7-0.15
			c-0.27,0-0.51,0.08-0.7,0.23c-0.19,0.16-0.34,0.37-0.46,0.65s-0.19,0.6-0.23,0.98S511.24,80.68,511.24,81.13z"/>
	</g>
</g>
<circle class="st7" cx="230.47" cy="142.09" r="4.19"/>
<line class="st8" x1="451.7" y1="142.09" x2="230.47" y2="142.09"/>
<g>
	<g>
		<path class="st9" d="M471.16,136.47v2.58c0,1.23-0.15,2.3-0.46,3.23s-0.74,1.71-1.3,2.34s-1.23,1.1-2,1.42s-1.62,0.47-2.56,0.47
			c-0.95,0-1.8-0.16-2.58-0.47s-1.44-0.79-2-1.42s-1-1.41-1.3-2.34s-0.46-2.01-0.46-3.23v-2.58c0-1.23,0.15-2.31,0.46-3.25
			s0.74-1.72,1.29-2.34s1.22-1.1,2-1.42s1.63-0.48,2.58-0.48c0.94,0,1.79,0.16,2.57,0.48s1.44,0.79,2,1.42s0.99,1.41,1.29,2.34
			S471.16,135.24,471.16,136.47z M467.09,139.05v-2.6c0-0.77-0.05-1.42-0.14-1.96s-0.23-0.98-0.42-1.31s-0.42-0.58-0.7-0.74
			s-0.61-0.23-1-0.23c-0.4,0-0.74,0.08-1.02,0.23s-0.51,0.4-0.7,0.74s-0.32,0.77-0.4,1.31s-0.13,1.19-0.13,1.96v2.6
			c0,0.76,0.04,1.4,0.13,1.94s0.22,0.97,0.4,1.32s0.42,0.6,0.71,0.76s0.63,0.24,1.02,0.24c0.38,0,0.71-0.08,0.99-0.24
			s0.52-0.41,0.7-0.76s0.32-0.78,0.42-1.32S467.09,139.81,467.09,139.05z"/>
		<path class="st9" d="M473.15,128.28H477v14.88l-0.4,3.12h-3.45V128.28z M483.32,139.33v1.18c0,1.04-0.08,1.93-0.24,2.68
			s-0.41,1.37-0.76,1.86s-0.78,0.86-1.3,1.1s-1.14,0.36-1.86,0.36c-0.62,0-1.13-0.16-1.55-0.48s-0.76-0.76-1.04-1.33
			s-0.49-1.22-0.66-1.97s-0.3-1.54-0.41-2.4v-0.8c0.11-0.84,0.24-1.64,0.4-2.39s0.38-1.41,0.65-1.97s0.62-1.01,1.04-1.33
			s0.94-0.48,1.55-0.48c0.73,0,1.35,0.12,1.88,0.37s0.96,0.62,1.3,1.11s0.6,1.12,0.76,1.86S483.32,138.32,483.32,139.33z
			 M479.48,140.51v-1.18c0-0.53-0.01-0.98-0.04-1.35s-0.08-0.67-0.17-0.9s-0.22-0.4-0.39-0.5s-0.41-0.16-0.71-0.16
			s-0.54,0.06-0.74,0.19s-0.36,0.31-0.47,0.54s-0.19,0.53-0.23,0.88s-0.05,0.74-0.03,1.19v1.43c-0.04,0.61-0.02,1.12,0.05,1.55
			s0.22,0.74,0.45,0.96s0.56,0.33,0.99,0.33c0.31,0,0.56-0.04,0.73-0.13s0.3-0.25,0.39-0.47s0.13-0.53,0.15-0.91
			S479.48,141.09,479.48,140.51z"/>
		<path class="st9" d="M488.39,133.6l1.14,3.49l1.2-3.49h3.96l-2.61,6.18l2.75,6.5h-4.01l-1.29-3.75l-1.29,3.75h-4.01l2.77-6.5
			l-2.61-6.18H488.39z"/>
		<path class="st9" d="M501.38,146.51c-0.91,0-1.71-0.12-2.42-0.38s-1.3-0.62-1.78-1.11s-0.84-1.08-1.08-1.79s-0.37-1.51-0.37-2.41
			v-1.38c0-1.02,0.11-1.9,0.32-2.66s0.54-1.39,0.97-1.89s0.98-0.88,1.64-1.14s1.45-0.39,2.34-0.39c0.79,0,1.49,0.12,2.1,0.35
			s1.13,0.6,1.56,1.08s0.75,1.11,0.98,1.86s0.34,1.65,0.34,2.68v1.84h-8.81v-2.47h5.05v-0.43c0.01-0.52-0.04-0.91-0.13-1.17
			s-0.24-0.45-0.43-0.54s-0.42-0.15-0.69-0.15c-0.32,0-0.57,0.05-0.76,0.16s-0.32,0.28-0.41,0.52s-0.14,0.55-0.17,0.94
			s-0.04,0.86-0.04,1.42v1.38c0,0.55,0.04,0.99,0.13,1.34s0.22,0.61,0.4,0.8s0.39,0.32,0.64,0.39s0.54,0.11,0.87,0.11
			c0.47,0,0.93-0.08,1.37-0.24s0.82-0.42,1.14-0.79l1.57,2.39c-0.21,0.27-0.52,0.54-0.94,0.8s-0.91,0.47-1.48,0.64
			S502.09,146.51,501.38,146.51z"/>
		<path class="st9" d="M512.25,143.48c0.27,0,0.48-0.05,0.64-0.14s0.28-0.26,0.36-0.51s0.1-0.6,0.09-1.07h3.6
			c0.02,1.05-0.18,1.92-0.58,2.63s-0.95,1.24-1.65,1.59s-1.48,0.53-2.37,0.53c-0.86,0-1.61-0.13-2.25-0.38s-1.17-0.63-1.6-1.13
			s-0.74-1.12-0.96-1.86s-0.32-1.61-0.32-2.59v-1.21c0-0.98,0.11-1.85,0.32-2.6s0.53-1.37,0.96-1.87s0.96-0.88,1.59-1.13
			s1.38-0.38,2.23-0.38c0.92,0,1.73,0.18,2.43,0.54s1.24,0.91,1.63,1.66s0.58,1.71,0.56,2.88h-3.6c0.02-0.48-0.01-0.88-0.08-1.18
			s-0.18-0.52-0.35-0.66s-0.39-0.21-0.69-0.21c-0.29,0-0.51,0.05-0.67,0.16s-0.27,0.28-0.34,0.52s-0.11,0.54-0.12,0.91
			s-0.02,0.82-0.02,1.34v1.21c0,0.53,0.01,0.98,0.02,1.36s0.06,0.68,0.13,0.91s0.19,0.4,0.35,0.5S511.96,143.48,512.25,143.48z"/>
		<path class="st9" d="M524.57,133.6v2.74h-6.7v-2.74H524.57z M519.09,130.45h3.86v11.7c0,0.34,0.03,0.6,0.08,0.78
			s0.15,0.31,0.29,0.39s0.35,0.11,0.62,0.11c0.19,0,0.34-0.01,0.46-0.02s0.23-0.03,0.32-0.05l-0.02,2.82
			c-0.3,0.11-0.62,0.19-0.94,0.25s-0.68,0.09-1.06,0.09c-0.76,0-1.4-0.13-1.94-0.4s-0.95-0.68-1.23-1.25s-0.43-1.31-0.43-2.23
			V130.45z"/>
		<path class="st9" d="M526.09,130.33c0-0.56,0.19-1.02,0.58-1.38s0.89-0.54,1.51-0.54c0.62,0,1.13,0.18,1.51,0.54
			s0.57,0.82,0.57,1.38s-0.19,1.02-0.57,1.38s-0.89,0.54-1.51,0.54c-0.62,0-1.12-0.18-1.51-0.54S526.09,130.89,526.09,130.33z
			 M530.12,133.6v12.68h-3.84V133.6H530.12z"/>
		<path class="st9" d="M535.57,133.6l1.72,9.97l-0.05,2.71h-2.38l-3.35-12.68H535.57z M536.34,143.57l1.75-9.97h4.05l-3.35,12.68
			h-2.38L536.34,143.57z"/>
		<path class="st9" d="M543.03,140.54v-1.18c0-1,0.12-1.87,0.38-2.62s0.61-1.37,1.07-1.86s1.01-0.87,1.65-1.12s1.36-0.38,2.14-0.38
			c0.8,0,1.53,0.13,2.17,0.38s1.19,0.63,1.65,1.12s0.82,1.12,1.07,1.86s0.38,1.62,0.38,2.62v1.18c0,0.99-0.12,1.86-0.38,2.61
			s-0.6,1.38-1.06,1.88s-1.01,0.87-1.65,1.12s-1.36,0.37-2.15,0.37s-1.51-0.12-2.16-0.37s-1.2-0.62-1.66-1.12s-0.82-1.12-1.07-1.88
			S543.03,141.53,543.03,140.54z M546.89,139.35v1.18c0,0.54,0.03,1,0.09,1.38s0.15,0.68,0.28,0.91s0.27,0.4,0.44,0.5
			s0.37,0.15,0.6,0.15c0.29,0,0.53-0.05,0.71-0.15s0.33-0.27,0.43-0.5s0.17-0.54,0.21-0.91s0.05-0.84,0.05-1.38v-1.18
			c0-0.53-0.03-0.98-0.09-1.35s-0.15-0.68-0.27-0.91s-0.27-0.41-0.45-0.52s-0.38-0.16-0.61-0.16c-0.22,0-0.41,0.05-0.59,0.16
			s-0.32,0.28-0.43,0.52s-0.21,0.54-0.27,0.91S546.89,138.82,546.89,139.35z"/>
		<path class="st9" d="M560.64,142.83c0-0.23-0.08-0.41-0.25-0.54s-0.39-0.27-0.69-0.41s-0.65-0.33-1.07-0.56
			c-0.5-0.23-0.97-0.47-1.41-0.72s-0.83-0.53-1.16-0.84s-0.59-0.66-0.78-1.07s-0.28-0.88-0.28-1.42c0-0.55,0.1-1.05,0.3-1.52
			s0.49-0.88,0.88-1.24s0.87-0.63,1.43-0.84s1.21-0.3,1.93-0.3c0.99,0,1.85,0.16,2.57,0.49s1.27,0.79,1.66,1.39s0.59,1.31,0.59,2.13
			h-3.84c0-0.32-0.03-0.58-0.08-0.79s-0.15-0.36-0.3-0.46s-0.35-0.15-0.6-0.15c-0.13,0-0.27,0.04-0.41,0.12s-0.26,0.2-0.35,0.36
			s-0.14,0.36-0.14,0.6c0,0.17,0.03,0.32,0.1,0.44s0.16,0.23,0.29,0.34s0.27,0.21,0.44,0.32s0.37,0.23,0.59,0.36
			c0.67,0.26,1.34,0.54,1.99,0.84s1.21,0.71,1.65,1.23s0.66,1.22,0.66,2.12c0,0.56-0.11,1.07-0.34,1.54s-0.55,0.86-0.97,1.21
			s-0.92,0.61-1.52,0.79s-1.26,0.27-2,0.27c-1.05,0-1.93-0.21-2.65-0.62s-1.27-0.94-1.63-1.58s-0.55-1.3-0.55-1.98h3.57
			c0.01,0.39,0.07,0.7,0.18,0.93s0.26,0.39,0.46,0.49s0.44,0.15,0.74,0.15c0.23,0,0.41-0.04,0.56-0.12s0.26-0.2,0.33-0.36
			S560.64,143.06,560.64,142.83z"/>
	</g>
</g>
<circle class="st7" cx="230.47" cy="200.47" r="4.19"/>
<line class="st8" x1="451.7" y1="200.47" x2="230.47" y2="200.47"/>
<g>
	<g>
		<path class="st9" d="M464.71,198.87h-3.41v-3.18h3.41c0.4,0,0.72-0.1,0.97-0.29s0.43-0.47,0.54-0.81s0.17-0.74,0.17-1.18
			c0-0.47-0.06-0.9-0.17-1.3s-0.29-0.72-0.54-0.97s-0.57-0.37-0.97-0.37h-1.95v13.89h-4.01v-17.06h5.95c1.18,0,2.2,0.25,3.05,0.75
			s1.52,1.19,1.98,2.06s0.7,1.87,0.7,2.98c0,1.1-0.23,2.06-0.7,2.88s-1.12,1.46-1.98,1.92S465.89,198.87,464.71,198.87z"/>
		<path class="st9" d="M476.3,195.12v9.54h-3.86v-12.68h3.59L476.3,195.12z M479.25,191.88l-0.05,3.67
			c-0.15-0.02-0.34-0.04-0.59-0.06s-0.44-0.04-0.6-0.04c-0.35,0-0.65,0.05-0.89,0.16s-0.44,0.26-0.6,0.47s-0.28,0.47-0.35,0.78
			s-0.1,0.68-0.09,1.09l-0.64-0.47c0-0.85,0.07-1.63,0.21-2.33s0.33-1.3,0.58-1.82s0.55-0.91,0.9-1.18s0.74-0.42,1.17-0.42
			c0.16,0,0.33,0.01,0.5,0.04S479.12,191.83,479.25,191.88z"/>
		<path class="st9" d="M480.7,188.71c0-0.56,0.19-1.02,0.58-1.38s0.89-0.54,1.51-0.54c0.62,0,1.13,0.18,1.51,0.54
			s0.57,0.82,0.57,1.38s-0.19,1.02-0.57,1.38s-0.89,0.54-1.51,0.54c-0.62,0-1.12-0.18-1.51-0.54S480.7,189.27,480.7,188.71z
			 M484.73,191.98v12.68h-3.84v-12.68H484.73z"/>
		<path class="st9" d="M490.74,194.68v9.97h-3.86v-12.68h3.61L490.74,194.68z M490.28,197.88l-0.87,0.02
			c-0.02-0.97,0.07-1.83,0.26-2.6s0.47-1.41,0.83-1.94s0.8-0.94,1.31-1.21s1.07-0.42,1.7-0.42c0.48,0,0.92,0.09,1.33,0.26
			s0.76,0.45,1.06,0.83s0.53,0.89,0.69,1.52s0.25,1.4,0.25,2.33v7.98h-3.87v-7.99c0-0.51-0.04-0.9-0.13-1.17s-0.23-0.46-0.41-0.56
			s-0.42-0.15-0.7-0.15c-0.27,0-0.51,0.08-0.7,0.23s-0.34,0.37-0.46,0.65s-0.19,0.6-0.23,0.98S490.28,197.44,490.28,197.88z"/>
		<path class="st9" d="M503.55,201.85c0.27,0,0.48-0.05,0.64-0.14s0.28-0.26,0.36-0.51s0.1-0.6,0.09-1.07h3.6
			c0.02,1.05-0.18,1.92-0.58,2.63s-0.95,1.24-1.65,1.59s-1.48,0.53-2.37,0.53c-0.86,0-1.61-0.13-2.25-0.38s-1.17-0.63-1.6-1.13
			s-0.74-1.12-0.96-1.86s-0.32-1.61-0.32-2.59v-1.21c0-0.98,0.11-1.85,0.32-2.6s0.53-1.37,0.96-1.87s0.96-0.88,1.59-1.13
			s1.38-0.38,2.23-0.38c0.92,0,1.73,0.18,2.43,0.54s1.24,0.91,1.63,1.66s0.58,1.71,0.56,2.88h-3.6c0.02-0.48-0.01-0.88-0.08-1.18
			s-0.18-0.52-0.35-0.66s-0.39-0.21-0.69-0.21c-0.29,0-0.51,0.05-0.67,0.16s-0.27,0.28-0.34,0.52s-0.11,0.54-0.12,0.91
			s-0.02,0.82-0.02,1.34v1.21c0,0.53,0.01,0.98,0.02,1.36s0.06,0.68,0.13,0.91s0.19,0.4,0.35,0.5S503.26,201.85,503.55,201.85z"/>
		<path class="st9" d="M509.89,188.71c0-0.56,0.19-1.02,0.58-1.38s0.89-0.54,1.51-0.54c0.62,0,1.13,0.18,1.51,0.54
			s0.57,0.82,0.57,1.38s-0.19,1.02-0.57,1.38s-0.89,0.54-1.51,0.54c-0.62,0-1.12-0.18-1.51-0.54S509.89,189.27,509.89,188.71z
			 M513.92,191.98v12.68h-3.84v-12.68H513.92z"/>
		<path class="st9" d="M520.04,194.41v15.12h-3.84v-17.55h3.57L520.04,194.41z M526.37,197.69v1.18c0,1-0.09,1.88-0.26,2.62
			s-0.44,1.38-0.79,1.88s-0.79,0.88-1.31,1.13s-1.12,0.38-1.8,0.38c-0.62,0-1.13-0.16-1.55-0.49s-0.76-0.77-1.03-1.34
			s-0.49-1.22-0.65-1.96s-0.3-1.51-0.41-2.33v-0.81c0.11-0.88,0.24-1.69,0.4-2.45s0.37-1.42,0.64-1.98s0.62-1,1.04-1.32
			s0.94-0.47,1.56-0.47c0.69,0,1.29,0.12,1.8,0.35s0.95,0.59,1.3,1.07s0.62,1.1,0.79,1.85S526.37,196.65,526.37,197.69z
			 M522.52,198.88v-1.18c0-0.56-0.02-1.03-0.06-1.41s-0.12-0.67-0.22-0.9s-0.23-0.38-0.4-0.47s-0.38-0.13-0.63-0.13
			c-0.29,0-0.53,0.06-0.73,0.17s-0.36,0.29-0.47,0.53s-0.19,0.54-0.23,0.89s-0.05,0.78-0.02,1.26v1.48
			c-0.04,0.55-0.02,1.03,0.05,1.44s0.22,0.73,0.45,0.96s0.56,0.35,0.98,0.35c0.27,0,0.48-0.05,0.65-0.15s0.3-0.27,0.39-0.5
			s0.16-0.54,0.19-0.93S522.52,199.42,522.52,198.88z"/>
		<path class="st9" d="M528.03,188.71c0-0.56,0.19-1.02,0.58-1.38s0.89-0.54,1.51-0.54c0.62,0,1.13,0.18,1.51,0.54
			s0.57,0.82,0.57,1.38s-0.19,1.02-0.57,1.38s-0.89,0.54-1.51,0.54c-0.62,0-1.12-0.18-1.51-0.54S528.03,189.27,528.03,188.71z
			 M532.06,191.98v12.68h-3.84v-12.68H532.06z"/>
		<path class="st9" d="M533.94,198.91v-1.18c0-1,0.12-1.87,0.38-2.62s0.61-1.37,1.07-1.86s1.01-0.87,1.65-1.12s1.36-0.38,2.14-0.38
			c0.8,0,1.53,0.13,2.17,0.38s1.19,0.63,1.65,1.12s0.82,1.12,1.07,1.86s0.38,1.62,0.38,2.62v1.18c0,0.99-0.12,1.86-0.38,2.61
			s-0.6,1.38-1.06,1.88s-1.01,0.87-1.65,1.12s-1.36,0.37-2.15,0.37s-1.51-0.12-2.16-0.37s-1.2-0.62-1.66-1.12s-0.82-1.12-1.07-1.88
			S533.94,199.9,533.94,198.91z M537.79,197.73v1.18c0,0.54,0.03,1,0.09,1.38s0.15,0.68,0.28,0.91s0.27,0.4,0.44,0.5
			s0.37,0.15,0.6,0.15c0.29,0,0.53-0.05,0.71-0.15s0.33-0.27,0.43-0.5s0.17-0.54,0.21-0.91s0.05-0.84,0.05-1.38v-1.18
			c0-0.53-0.03-0.98-0.09-1.35s-0.15-0.68-0.27-0.91s-0.27-0.41-0.45-0.52s-0.38-0.16-0.61-0.16c-0.22,0-0.41,0.05-0.59,0.16
			s-0.32,0.28-0.43,0.52s-0.21,0.54-0.27,0.91S537.79,197.2,537.79,197.73z"/>
		<path class="st9" d="M551.55,201.21c0-0.23-0.08-0.41-0.25-0.54s-0.39-0.27-0.69-0.41s-0.65-0.33-1.07-0.56
			c-0.5-0.23-0.97-0.47-1.41-0.72s-0.83-0.53-1.16-0.84s-0.59-0.66-0.78-1.07s-0.28-0.88-0.28-1.42c0-0.55,0.1-1.05,0.3-1.52
			s0.49-0.88,0.88-1.24s0.87-0.63,1.43-0.84s1.21-0.3,1.93-0.3c0.99,0,1.85,0.16,2.57,0.49s1.27,0.79,1.66,1.39s0.59,1.31,0.59,2.13
			h-3.84c0-0.32-0.03-0.58-0.08-0.79s-0.15-0.36-0.3-0.46s-0.35-0.15-0.6-0.15c-0.13,0-0.27,0.04-0.41,0.12s-0.26,0.2-0.35,0.36
			s-0.14,0.36-0.14,0.6c0,0.17,0.03,0.32,0.1,0.44s0.16,0.23,0.29,0.34s0.27,0.21,0.44,0.32s0.37,0.23,0.59,0.36
			c0.67,0.26,1.34,0.54,1.99,0.84s1.21,0.71,1.65,1.23s0.66,1.22,0.66,2.12c0,0.56-0.11,1.07-0.34,1.54s-0.55,0.86-0.97,1.21
			s-0.92,0.61-1.52,0.79s-1.26,0.27-2,0.27c-1.05,0-1.93-0.21-2.65-0.62s-1.27-0.94-1.63-1.58s-0.55-1.3-0.55-1.98h3.57
			c0.01,0.39,0.07,0.7,0.18,0.93s0.26,0.39,0.46,0.49s0.44,0.15,0.74,0.15c0.23,0,0.41-0.04,0.56-0.12s0.26-0.2,0.33-0.36
			S551.55,201.44,551.55,201.21z"/>
		<path class="st9" d="M574.25,187.59v3.18h-12.18v-3.18H574.25z M570.11,187.59v17.06h-4.02v-17.06H570.11z"/>
		<path class="st9" d="M579.73,195.12v9.54h-3.86v-12.68h3.59L579.73,195.12z M582.68,191.88l-0.05,3.67
			c-0.15-0.02-0.34-0.04-0.59-0.06s-0.44-0.04-0.6-0.04c-0.35,0-0.65,0.05-0.89,0.16s-0.44,0.26-0.6,0.47s-0.28,0.47-0.35,0.78
			s-0.1,0.68-0.09,1.09l-0.64-0.47c0-0.85,0.07-1.63,0.21-2.33s0.33-1.3,0.58-1.82s0.55-0.91,0.9-1.18s0.74-0.42,1.17-0.42
			c0.16,0,0.33,0.01,0.5,0.04S582.55,191.83,582.68,191.88z"/>
		<path class="st9" d="M589.87,196.91l0.02,2.11h-1c-0.24,0-0.45,0.06-0.62,0.17s-0.31,0.26-0.43,0.45s-0.19,0.4-0.24,0.63
			s-0.07,0.47-0.07,0.71c0,0.34,0.04,0.59,0.11,0.75s0.17,0.26,0.28,0.3s0.24,0.06,0.38,0.06c0.3,0,0.54-0.06,0.74-0.19
			s0.34-0.28,0.43-0.46s0.11-0.33,0.07-0.46l0.4,1.55c-0.13,0.29-0.26,0.57-0.39,0.85s-0.28,0.53-0.47,0.76s-0.42,0.41-0.69,0.55
			s-0.62,0.21-1.03,0.21c-0.66,0-1.26-0.13-1.82-0.4s-1.01-0.68-1.35-1.23s-0.51-1.26-0.51-2.11c0-0.59,0.09-1.13,0.28-1.65
			s0.47-0.96,0.87-1.35s0.94-0.7,1.61-0.91s1.5-0.33,2.48-0.33H589.87z M589.44,201.47v-5.58c0-0.36-0.03-0.63-0.08-0.83
			s-0.14-0.33-0.26-0.41s-0.3-0.12-0.53-0.12c-0.19,0-0.34,0.05-0.46,0.14s-0.2,0.24-0.25,0.43s-0.07,0.45-0.07,0.77h-3.86
			c0-0.59,0.11-1.13,0.34-1.63s0.55-0.94,0.97-1.32s0.93-0.67,1.52-0.87s1.25-0.31,1.99-0.31c0.87,0,1.64,0.14,2.33,0.42
			s1.23,0.72,1.63,1.33s0.6,1.42,0.6,2.43v5.54c0,0.83,0.04,1.46,0.13,1.88s0.2,0.8,0.35,1.12v0.2h-3.84
			c-0.18-0.39-0.31-0.87-0.39-1.44S589.44,202.07,589.44,201.47z"/>
		<path class="st9" d="M599.09,194.68v9.97h-3.86v-12.68h3.61L599.09,194.68z M598.64,197.88l-0.87,0.02
			c-0.02-0.97,0.07-1.83,0.26-2.6s0.47-1.41,0.83-1.94s0.8-0.94,1.31-1.21s1.07-0.42,1.7-0.42c0.48,0,0.92,0.09,1.33,0.26
			s0.76,0.45,1.06,0.83s0.53,0.89,0.69,1.52s0.25,1.4,0.25,2.33v7.98h-3.87v-7.99c0-0.51-0.04-0.9-0.13-1.17s-0.23-0.46-0.41-0.56
			s-0.42-0.15-0.7-0.15c-0.27,0-0.51,0.08-0.7,0.23s-0.34,0.37-0.46,0.65s-0.19,0.6-0.23,0.98S598.64,197.44,598.64,197.88z"/>
		<path class="st9" d="M612.64,201.21c0-0.23-0.08-0.41-0.25-0.54s-0.39-0.27-0.69-0.41s-0.65-0.33-1.07-0.56
			c-0.5-0.23-0.97-0.47-1.41-0.72s-0.83-0.53-1.16-0.84s-0.59-0.66-0.78-1.07s-0.28-0.88-0.28-1.42c0-0.55,0.1-1.05,0.3-1.52
			s0.49-0.88,0.88-1.24s0.87-0.63,1.43-0.84s1.21-0.3,1.93-0.3c0.99,0,1.85,0.16,2.57,0.49s1.27,0.79,1.66,1.39s0.59,1.31,0.59,2.13
			h-3.84c0-0.32-0.03-0.58-0.08-0.79s-0.15-0.36-0.3-0.46s-0.35-0.15-0.6-0.15c-0.13,0-0.27,0.04-0.41,0.12s-0.26,0.2-0.35,0.36
			s-0.14,0.36-0.14,0.6c0,0.17,0.03,0.32,0.1,0.44s0.16,0.23,0.29,0.34s0.27,0.21,0.44,0.32s0.37,0.23,0.59,0.36
			c0.67,0.26,1.34,0.54,1.99,0.84s1.21,0.71,1.65,1.23s0.66,1.22,0.66,2.12c0,0.56-0.11,1.07-0.34,1.54s-0.55,0.86-0.97,1.21
			s-0.92,0.61-1.52,0.79s-1.26,0.27-2,0.27c-1.05,0-1.93-0.21-2.65-0.62s-1.27-0.94-1.63-1.58s-0.55-1.3-0.55-1.98h3.57
			c0.01,0.39,0.07,0.7,0.18,0.93s0.26,0.39,0.46,0.49s0.44,0.15,0.74,0.15c0.23,0,0.41-0.04,0.56-0.12s0.26-0.2,0.33-0.36
			S612.64,201.44,612.64,201.21z"/>
		<path class="st9" d="M621.31,191.98l1.72,9.97l-0.05,2.71h-2.38l-3.35-12.68H621.31z M622.09,201.95l1.75-9.97h4.05l-3.35,12.68
			h-2.38L622.09,201.95z"/>
		<path class="st9" d="M634.54,204.89c-0.91,0-1.71-0.12-2.42-0.38s-1.3-0.62-1.78-1.11s-0.84-1.08-1.08-1.79s-0.37-1.51-0.37-2.41
			v-1.38c0-1.02,0.11-1.9,0.32-2.66s0.54-1.39,0.97-1.89s0.98-0.88,1.64-1.14s1.45-0.39,2.34-0.39c0.79,0,1.49,0.12,2.1,0.35
			s1.13,0.6,1.56,1.08s0.75,1.11,0.98,1.86s0.34,1.65,0.34,2.68v1.84h-8.81v-2.47h5.05v-0.43c0.01-0.52-0.04-0.91-0.13-1.17
			s-0.24-0.45-0.43-0.54s-0.42-0.15-0.69-0.15c-0.32,0-0.57,0.05-0.76,0.16s-0.32,0.28-0.41,0.52s-0.14,0.55-0.17,0.94
			s-0.04,0.86-0.04,1.42v1.38c0,0.55,0.04,0.99,0.13,1.34s0.22,0.61,0.4,0.8s0.39,0.32,0.64,0.39s0.54,0.11,0.87,0.11
			c0.47,0,0.93-0.08,1.37-0.24s0.82-0.42,1.14-0.79l1.57,2.39c-0.21,0.27-0.52,0.54-0.94,0.8s-0.91,0.47-1.48,0.64
			S635.25,204.89,634.54,204.89z"/>
		<path class="st9" d="M644.62,195.12v9.54h-3.86v-12.68h3.59L644.62,195.12z M647.56,191.88l-0.05,3.67
			c-0.15-0.02-0.34-0.04-0.59-0.06s-0.44-0.04-0.6-0.04c-0.35,0-0.65,0.05-0.89,0.16s-0.44,0.26-0.6,0.47s-0.28,0.47-0.35,0.78
			s-0.1,0.68-0.09,1.09l-0.64-0.47c0-0.85,0.07-1.63,0.21-2.33s0.33-1.3,0.58-1.82s0.55-0.91,0.9-1.18s0.74-0.42,1.17-0.42
			c0.16,0,0.33,0.01,0.5,0.04S647.44,191.83,647.56,191.88z"/>
		<path class="st9" d="M654.42,201.21c0-0.23-0.08-0.41-0.25-0.54s-0.39-0.27-0.69-0.41s-0.65-0.33-1.07-0.56
			c-0.5-0.23-0.97-0.47-1.41-0.72s-0.83-0.53-1.16-0.84s-0.59-0.66-0.78-1.07s-0.28-0.88-0.28-1.42c0-0.55,0.1-1.05,0.3-1.52
			s0.49-0.88,0.88-1.24s0.87-0.63,1.43-0.84s1.21-0.3,1.93-0.3c0.99,0,1.85,0.16,2.57,0.49s1.27,0.79,1.66,1.39s0.59,1.31,0.59,2.13
			h-3.84c0-0.32-0.03-0.58-0.08-0.79s-0.15-0.36-0.3-0.46s-0.35-0.15-0.6-0.15c-0.13,0-0.27,0.04-0.41,0.12s-0.26,0.2-0.35,0.36
			s-0.14,0.36-0.14,0.6c0,0.17,0.03,0.32,0.1,0.44s0.16,0.23,0.29,0.34s0.27,0.21,0.44,0.32s0.37,0.23,0.59,0.36
			c0.67,0.26,1.34,0.54,1.99,0.84s1.21,0.71,1.65,1.23s0.66,1.22,0.66,2.12c0,0.56-0.11,1.07-0.34,1.54s-0.55,0.86-0.97,1.21
			s-0.92,0.61-1.52,0.79s-1.26,0.27-2,0.27c-1.05,0-1.93-0.21-2.65-0.62s-1.27-0.94-1.63-1.58s-0.55-1.3-0.55-1.98h3.57
			c0.01,0.39,0.07,0.7,0.18,0.93s0.26,0.39,0.46,0.49s0.44,0.15,0.74,0.15c0.23,0,0.41-0.04,0.56-0.12s0.26-0.2,0.33-0.36
			S654.42,201.44,654.42,201.21z"/>
		<path class="st9" d="M665.62,196.91l0.02,2.11h-1c-0.24,0-0.45,0.06-0.62,0.17s-0.31,0.26-0.43,0.45s-0.19,0.4-0.24,0.63
			s-0.07,0.47-0.07,0.71c0,0.34,0.04,0.59,0.11,0.75s0.17,0.26,0.28,0.3s0.24,0.06,0.38,0.06c0.3,0,0.54-0.06,0.74-0.19
			s0.34-0.28,0.43-0.46s0.11-0.33,0.07-0.46l0.4,1.55c-0.13,0.29-0.26,0.57-0.39,0.85s-0.28,0.53-0.47,0.76s-0.42,0.41-0.69,0.55
			s-0.62,0.21-1.03,0.21c-0.66,0-1.26-0.13-1.82-0.4s-1.01-0.68-1.35-1.23s-0.51-1.26-0.51-2.11c0-0.59,0.09-1.13,0.28-1.65
			s0.47-0.96,0.87-1.35s0.94-0.7,1.61-0.91s1.5-0.33,2.48-0.33H665.62z M665.19,201.47v-5.58c0-0.36-0.03-0.63-0.08-0.83
			s-0.14-0.33-0.26-0.41s-0.3-0.12-0.53-0.12c-0.19,0-0.34,0.05-0.46,0.14s-0.2,0.24-0.25,0.43s-0.07,0.45-0.07,0.77h-3.86
			c0-0.59,0.11-1.13,0.34-1.63s0.55-0.94,0.97-1.32s0.93-0.67,1.52-0.87s1.25-0.31,1.99-0.31c0.87,0,1.64,0.14,2.33,0.42
			s1.23,0.72,1.63,1.33s0.6,1.42,0.6,2.43v5.54c0,0.83,0.04,1.46,0.13,1.88s0.2,0.8,0.35,1.12v0.2h-3.84
			c-0.18-0.39-0.31-0.87-0.39-1.44S665.19,202.07,665.19,201.47z"/>
		<path class="st9" d="M671.07,188.71c0-0.56,0.19-1.02,0.58-1.38s0.89-0.54,1.51-0.54c0.62,0,1.13,0.18,1.51,0.54
			s0.57,0.82,0.57,1.38s-0.19,1.02-0.57,1.38s-0.89,0.54-1.51,0.54c-0.62,0-1.12-0.18-1.51-0.54S671.07,189.27,671.07,188.71z
			 M675.1,191.98v12.68h-3.84v-12.68H675.1z"/>
		<path class="st9" d="M682.74,201.21c0-0.23-0.08-0.41-0.25-0.54s-0.39-0.27-0.69-0.41s-0.65-0.33-1.07-0.56
			c-0.5-0.23-0.97-0.47-1.41-0.72s-0.83-0.53-1.16-0.84s-0.59-0.66-0.78-1.07s-0.28-0.88-0.28-1.42c0-0.55,0.1-1.05,0.3-1.52
			s0.49-0.88,0.88-1.24s0.87-0.63,1.43-0.84s1.21-0.3,1.93-0.3c0.99,0,1.85,0.16,2.57,0.49s1.27,0.79,1.66,1.39s0.59,1.31,0.59,2.13
			h-3.84c0-0.32-0.03-0.58-0.08-0.79s-0.15-0.36-0.3-0.46s-0.35-0.15-0.6-0.15c-0.13,0-0.27,0.04-0.41,0.12s-0.26,0.2-0.35,0.36
			s-0.14,0.36-0.14,0.6c0,0.17,0.03,0.32,0.1,0.44s0.16,0.23,0.29,0.34s0.27,0.21,0.44,0.32s0.37,0.23,0.59,0.36
			c0.67,0.26,1.34,0.54,1.99,0.84s1.21,0.71,1.65,1.23s0.66,1.22,0.66,2.12c0,0.56-0.11,1.07-0.34,1.54s-0.55,0.86-0.97,1.21
			s-0.92,0.61-1.52,0.79s-1.26,0.27-2,0.27c-1.05,0-1.93-0.21-2.65-0.62s-1.27-0.94-1.63-1.58s-0.55-1.3-0.55-1.98h3.57
			c0.01,0.39,0.07,0.7,0.18,0.93s0.26,0.39,0.46,0.49s0.44,0.15,0.74,0.15c0.23,0,0.41-0.04,0.56-0.12s0.26-0.2,0.33-0.36
			S682.74,201.44,682.74,201.21z"/>
	</g>
</g>
<circle class="st7" cx="230.47" cy="258.85" r="4.19"/>
<line class="st8" x1="451.7" y1="258.85" x2="230.47" y2="258.85"/>
<g>
	<g>
		<path class="st9" d="M462.77,245.97v17.06h-4.01v-17.06H462.77z M468.53,259.87v3.16h-7.17v-3.16H468.53z"/>
		<path class="st9" d="M470.13,247.08c0-0.56,0.19-1.02,0.58-1.38s0.89-0.54,1.51-0.54c0.62,0,1.13,0.18,1.51,0.54
			s0.57,0.82,0.57,1.38s-0.19,1.02-0.57,1.38s-0.89,0.54-1.51,0.54c-0.62,0-1.12-0.18-1.51-0.54S470.13,247.65,470.13,247.08z
			 M474.16,250.35v12.68h-3.84v-12.68H474.16z"/>
		<path class="st9" d="M480.17,253.06v9.97h-3.86v-12.68h3.61L480.17,253.06z M483.12,245.01l2.06,0.13c0,0.57-0.1,1.1-0.3,1.58
			s-0.48,0.88-0.84,1.17s-0.77,0.45-1.23,0.45c-0.29,0-0.55-0.05-0.79-0.15s-0.46-0.21-0.66-0.35s-0.41-0.25-0.62-0.35
			s-0.43-0.15-0.67-0.15c-0.18,0-0.34,0.09-0.47,0.26s-0.2,0.44-0.2,0.8l-2.09-0.12c0-0.55,0.1-1.08,0.3-1.56s0.48-0.88,0.83-1.18
			s0.77-0.45,1.24-0.45c0.24,0,0.48,0.05,0.71,0.15s0.46,0.21,0.67,0.34s0.44,0.24,0.67,0.34s0.45,0.15,0.68,0.15
			c0.19,0,0.35-0.09,0.49-0.26S483.12,245.37,483.12,245.01z M479.71,256.26l-0.87,0.02c-0.02-0.97,0.07-1.83,0.26-2.6
			s0.47-1.41,0.83-1.94s0.8-0.94,1.31-1.21s1.07-0.42,1.7-0.42c0.48,0,0.92,0.09,1.33,0.26s0.76,0.45,1.06,0.83s0.53,0.89,0.69,1.52
			s0.25,1.4,0.25,2.33v7.98h-3.87v-7.99c0-0.51-0.04-0.9-0.13-1.17s-0.23-0.46-0.41-0.56s-0.42-0.15-0.7-0.15
			c-0.27,0-0.51,0.08-0.7,0.23s-0.34,0.37-0.46,0.65s-0.19,0.6-0.23,0.98S479.71,255.81,479.71,256.26z"/>
		<path class="st9" d="M494.06,255.29l0.02,2.11h-1c-0.24,0-0.45,0.06-0.62,0.17s-0.31,0.26-0.43,0.45s-0.19,0.4-0.24,0.63
			s-0.07,0.47-0.07,0.71c0,0.34,0.04,0.59,0.11,0.75s0.17,0.26,0.28,0.3s0.24,0.06,0.38,0.06c0.3,0,0.54-0.06,0.74-0.19
			s0.34-0.28,0.43-0.46s0.11-0.33,0.07-0.46l0.4,1.55c-0.13,0.29-0.26,0.57-0.39,0.85s-0.28,0.53-0.47,0.76s-0.42,0.41-0.69,0.55
			s-0.62,0.21-1.03,0.21c-0.66,0-1.26-0.13-1.82-0.4s-1.01-0.68-1.35-1.23s-0.51-1.26-0.51-2.11c0-0.59,0.09-1.13,0.28-1.65
			s0.47-0.96,0.87-1.35s0.94-0.7,1.61-0.91s1.5-0.33,2.48-0.33H494.06z M493.62,259.84v-5.58c0-0.36-0.03-0.63-0.08-0.83
			s-0.14-0.33-0.26-0.41s-0.3-0.12-0.53-0.12c-0.19,0-0.34,0.05-0.46,0.14s-0.2,0.24-0.25,0.43s-0.07,0.45-0.07,0.77h-3.86
			c0-0.59,0.11-1.13,0.34-1.63s0.55-0.94,0.97-1.32s0.93-0.67,1.52-0.87s1.25-0.31,1.99-0.31c0.87,0,1.64,0.14,2.33,0.42
			s1.23,0.72,1.63,1.33s0.6,1.42,0.6,2.43v5.54c0,0.83,0.04,1.46,0.13,1.88s0.2,0.8,0.35,1.12v0.2h-3.84
			c-0.18-0.39-0.31-0.87-0.39-1.44S493.62,260.45,493.62,259.84z"/>
		<path class="st9" d="M504.91,259.59c0-0.23-0.08-0.41-0.25-0.54s-0.39-0.27-0.69-0.41s-0.65-0.33-1.07-0.56
			c-0.5-0.23-0.97-0.47-1.41-0.72s-0.83-0.53-1.16-0.84s-0.59-0.66-0.78-1.07s-0.28-0.88-0.28-1.42c0-0.55,0.1-1.05,0.3-1.52
			s0.49-0.88,0.88-1.24s0.87-0.63,1.43-0.84s1.21-0.3,1.93-0.3c0.99,0,1.85,0.16,2.57,0.49s1.27,0.79,1.66,1.39s0.59,1.31,0.59,2.13
			h-3.84c0-0.32-0.03-0.58-0.08-0.79s-0.15-0.36-0.3-0.46s-0.35-0.15-0.6-0.15c-0.13,0-0.27,0.04-0.41,0.12s-0.26,0.2-0.35,0.36
			s-0.14,0.36-0.14,0.6c0,0.17,0.03,0.32,0.1,0.44s0.16,0.23,0.29,0.34s0.27,0.21,0.44,0.32s0.37,0.23,0.59,0.36
			c0.67,0.26,1.34,0.54,1.99,0.84c0.66,0.3,1.21,0.71,1.65,1.23s0.66,1.22,0.66,2.12c0,0.56-0.11,1.07-0.34,1.54
			s-0.55,0.86-0.97,1.21s-0.92,0.61-1.52,0.79s-1.26,0.27-2,0.27c-1.05,0-1.93-0.21-2.65-0.62s-1.27-0.94-1.63-1.58
			s-0.55-1.3-0.55-1.98h3.57c0.01,0.39,0.07,0.7,0.18,0.93s0.26,0.39,0.46,0.49s0.44,0.15,0.74,0.15c0.23,0,0.41-0.04,0.56-0.12
			s0.26-0.2,0.33-0.36S504.91,259.81,504.91,259.59z"/>
		<path class="st9" d="M520.04,245.97v17.06h-4.01v-17.06H520.04z M526.14,245.97v3.18h-7.5v-3.18H526.14z M525.14,252.74v3.06
			h-6.49v-3.06H525.14z M526.11,259.87v3.16h-7.46v-3.16H526.11z"/>
		<path class="st9" d="M533.02,259.59c0-0.23-0.08-0.41-0.25-0.54s-0.39-0.27-0.69-0.41s-0.65-0.33-1.07-0.56
			c-0.5-0.23-0.97-0.47-1.41-0.72s-0.83-0.53-1.16-0.84s-0.59-0.66-0.78-1.07s-0.28-0.88-0.28-1.42c0-0.55,0.1-1.05,0.3-1.52
			s0.49-0.88,0.88-1.24s0.87-0.63,1.43-0.84s1.21-0.3,1.93-0.3c0.99,0,1.85,0.16,2.57,0.49s1.27,0.79,1.66,1.39s0.59,1.31,0.59,2.13
			h-3.84c0-0.32-0.03-0.58-0.08-0.79s-0.15-0.36-0.3-0.46s-0.35-0.15-0.6-0.15c-0.13,0-0.27,0.04-0.41,0.12s-0.26,0.2-0.35,0.36
			s-0.14,0.36-0.14,0.6c0,0.17,0.03,0.32,0.1,0.44s0.16,0.23,0.29,0.34s0.27,0.21,0.44,0.32s0.37,0.23,0.59,0.36
			c0.67,0.26,1.34,0.54,1.99,0.84c0.66,0.3,1.21,0.71,1.65,1.23s0.66,1.22,0.66,2.12c0,0.56-0.11,1.07-0.34,1.54
			s-0.55,0.86-0.97,1.21s-0.92,0.61-1.52,0.79s-1.26,0.27-2,0.27c-1.05,0-1.93-0.21-2.65-0.62s-1.27-0.94-1.63-1.58
			s-0.55-1.3-0.55-1.98h3.57c0.01,0.39,0.07,0.7,0.18,0.93s0.26,0.39,0.46,0.49s0.44,0.15,0.74,0.15c0.23,0,0.41-0.04,0.56-0.12
			s0.26-0.2,0.33-0.36S533.02,259.81,533.02,259.59z"/>
		<path class="st9" d="M544.47,250.35v2.74h-6.7v-2.74H544.47z M538.99,247.2h3.86v11.7c0,0.34,0.03,0.6,0.08,0.78
			s0.15,0.31,0.29,0.39s0.35,0.11,0.62,0.11c0.19,0,0.34-0.01,0.46-0.02s0.23-0.03,0.32-0.05l-0.02,2.82
			c-0.3,0.11-0.62,0.19-0.94,0.25s-0.68,0.09-1.06,0.09c-0.76,0-1.4-0.13-1.94-0.4s-0.95-0.68-1.23-1.25s-0.43-1.31-0.43-2.23V247.2
			z"/>
		<path class="st9" d="M549.86,253.49v9.54h-3.86v-12.68h3.59L549.86,253.49z M552.8,250.26l-0.05,3.67
			c-0.15-0.02-0.34-0.04-0.59-0.06s-0.44-0.04-0.6-0.04c-0.35,0-0.65,0.05-0.89,0.16s-0.44,0.26-0.6,0.47s-0.28,0.47-0.35,0.78
			s-0.1,0.68-0.09,1.09l-0.64-0.47c0-0.85,0.07-1.63,0.21-2.33s0.33-1.3,0.58-1.82s0.55-0.91,0.9-1.18s0.74-0.42,1.17-0.42
			c0.16,0,0.33,0.01,0.5,0.04S552.68,250.21,552.8,250.26z"/>
		<path class="st9" d="M560,255.29l0.02,2.11h-1c-0.24,0-0.45,0.06-0.62,0.17s-0.31,0.26-0.43,0.45s-0.19,0.4-0.24,0.63
			s-0.07,0.47-0.07,0.71c0,0.34,0.04,0.59,0.11,0.75s0.17,0.26,0.28,0.3s0.24,0.06,0.38,0.06c0.3,0,0.54-0.06,0.74-0.19
			s0.34-0.28,0.43-0.46s0.11-0.33,0.07-0.46l0.4,1.55c-0.13,0.29-0.26,0.57-0.39,0.85s-0.28,0.53-0.47,0.76s-0.42,0.41-0.69,0.55
			s-0.62,0.21-1.03,0.21c-0.66,0-1.26-0.13-1.82-0.4s-1.01-0.68-1.35-1.23s-0.51-1.26-0.51-2.11c0-0.59,0.09-1.13,0.28-1.65
			s0.47-0.96,0.87-1.35s0.94-0.7,1.61-0.91s1.5-0.33,2.48-0.33H560z M559.57,259.84v-5.58c0-0.36-0.03-0.63-0.08-0.83
			s-0.14-0.33-0.26-0.41s-0.3-0.12-0.53-0.12c-0.19,0-0.34,0.05-0.46,0.14s-0.2,0.24-0.25,0.43s-0.07,0.45-0.07,0.77h-3.86
			c0-0.59,0.11-1.13,0.34-1.63s0.55-0.94,0.97-1.32s0.93-0.67,1.52-0.87s1.25-0.31,1.99-0.31c0.87,0,1.64,0.14,2.33,0.42
			s1.23,0.72,1.63,1.33s0.6,1.42,0.6,2.43v5.54c0,0.83,0.04,1.46,0.13,1.88s0.2,0.8,0.35,1.12v0.2h-3.84
			c-0.18-0.39-0.31-0.87-0.39-1.44S559.57,260.45,559.57,259.84z"/>
		<path class="st9" d="M571.44,250.35v2.74h-6.7v-2.74H571.44z M565.95,247.2h3.86v11.7c0,0.34,0.03,0.6,0.08,0.78
			s0.15,0.31,0.29,0.39s0.35,0.11,0.62,0.11c0.19,0,0.34-0.01,0.46-0.02s0.23-0.03,0.32-0.05l-0.02,2.82
			c-0.3,0.11-0.62,0.19-0.94,0.25s-0.68,0.09-1.06,0.09c-0.76,0-1.4-0.13-1.94-0.4s-0.95-0.68-1.23-1.25s-0.43-1.31-0.43-2.23V247.2
			z"/>
		<path class="st9" d="M578.35,263.27c-0.91,0-1.71-0.12-2.42-0.38s-1.3-0.62-1.78-1.11s-0.84-1.08-1.08-1.79s-0.37-1.51-0.37-2.41
			v-1.38c0-1.02,0.11-1.9,0.32-2.66s0.54-1.39,0.97-1.89s0.98-0.88,1.64-1.14s1.45-0.39,2.34-0.39c0.79,0,1.49,0.12,2.1,0.35
			s1.13,0.6,1.56,1.08s0.75,1.11,0.98,1.86s0.34,1.65,0.34,2.68v1.84h-8.81v-2.47h5.05v-0.43c0.01-0.52-0.04-0.91-0.13-1.17
			s-0.24-0.45-0.43-0.54s-0.42-0.15-0.69-0.15c-0.32,0-0.57,0.05-0.76,0.16s-0.32,0.28-0.41,0.52s-0.14,0.55-0.17,0.94
			s-0.04,0.86-0.04,1.42v1.38c0,0.55,0.04,0.99,0.13,1.34s0.22,0.61,0.4,0.8s0.39,0.32,0.64,0.39s0.54,0.11,0.87,0.11
			c0.47,0,0.93-0.08,1.37-0.24s0.82-0.42,1.14-0.79l1.57,2.39c-0.21,0.27-0.52,0.54-0.94,0.8s-0.91,0.47-1.48,0.64
			S579.06,263.27,578.35,263.27z M575.54,248.7l2.32-3.68h4.17l-3.27,3.68H575.54z"/>
		<path class="st9" d="M587.95,250.35l1.14,3.49l1.2-3.49h3.96l-2.61,6.18l2.75,6.5h-4.01l-1.29-3.75l-1.29,3.75h-4.01l2.77-6.5
			l-2.61-6.18H587.95z"/>
		<path class="st9" d="M595.54,247.08c0-0.56,0.19-1.02,0.58-1.38s0.89-0.54,1.51-0.54c0.62,0,1.13,0.18,1.51,0.54
			s0.57,0.82,0.57,1.38s-0.19,1.02-0.57,1.38s-0.89,0.54-1.51,0.54c-0.62,0-1.12-0.18-1.51-0.54S595.54,247.65,595.54,247.08z
			 M599.57,250.35v12.68h-3.84v-12.68H599.57z"/>
		<path class="st9" d="M606.48,260.23c0.27,0,0.48-0.05,0.64-0.14s0.28-0.26,0.36-0.51s0.1-0.6,0.09-1.07h3.6
			c0.02,1.05-0.18,1.92-0.58,2.63s-0.95,1.24-1.65,1.59s-1.48,0.53-2.37,0.53c-0.86,0-1.61-0.13-2.25-0.38s-1.17-0.63-1.6-1.13
			s-0.74-1.12-0.96-1.86s-0.32-1.61-0.32-2.59v-1.21c0-0.98,0.11-1.85,0.32-2.6s0.53-1.37,0.96-1.87s0.96-0.88,1.59-1.13
			s1.38-0.38,2.23-0.38c0.92,0,1.73,0.18,2.43,0.54s1.24,0.91,1.63,1.66s0.58,1.71,0.56,2.88h-3.6c0.02-0.48-0.01-0.88-0.08-1.18
			s-0.18-0.52-0.35-0.66s-0.39-0.21-0.69-0.21c-0.29,0-0.51,0.05-0.67,0.16s-0.27,0.28-0.34,0.52s-0.11,0.54-0.12,0.91
			s-0.02,0.82-0.02,1.34v1.21c0,0.53,0.01,0.98,0.02,1.36s0.06,0.68,0.13,0.91s0.19,0.4,0.35,0.5S606.19,260.23,606.48,260.23z"/>
		<path class="st9" d="M618.56,255.29l0.02,2.11h-1c-0.24,0-0.45,0.06-0.62,0.17s-0.31,0.26-0.43,0.45s-0.19,0.4-0.24,0.63
			s-0.07,0.47-0.07,0.71c0,0.34,0.04,0.59,0.11,0.75s0.17,0.26,0.28,0.3s0.24,0.06,0.38,0.06c0.3,0,0.54-0.06,0.74-0.19
			s0.34-0.28,0.43-0.46s0.11-0.33,0.07-0.46l0.4,1.55c-0.13,0.29-0.26,0.57-0.39,0.85s-0.28,0.53-0.47,0.76s-0.42,0.41-0.69,0.55
			s-0.62,0.21-1.03,0.21c-0.66,0-1.26-0.13-1.82-0.4s-1.01-0.68-1.35-1.23s-0.51-1.26-0.51-2.11c0-0.59,0.09-1.13,0.28-1.65
			s0.47-0.96,0.87-1.35s0.94-0.7,1.61-0.91s1.5-0.33,2.48-0.33H618.56z M618.12,259.84v-5.58c0-0.36-0.03-0.63-0.08-0.83
			s-0.14-0.33-0.26-0.41s-0.3-0.12-0.53-0.12c-0.19,0-0.34,0.05-0.46,0.14s-0.2,0.24-0.25,0.43s-0.07,0.45-0.07,0.77h-3.86
			c0-0.59,0.11-1.13,0.34-1.63s0.55-0.94,0.97-1.32s0.93-0.67,1.52-0.87s1.25-0.31,1.99-0.31c0.87,0,1.64,0.14,2.33,0.42
			s1.23,0.72,1.63,1.33s0.6,1.42,0.6,2.43v5.54c0,0.83,0.04,1.46,0.13,1.88s0.2,0.8,0.35,1.12v0.2h-3.84
			c-0.18-0.39-0.31-0.87-0.39-1.44S618.12,260.45,618.12,259.84z"/>
		<path class="st9" d="M629.41,259.59c0-0.23-0.08-0.41-0.25-0.54s-0.39-0.27-0.69-0.41s-0.65-0.33-1.07-0.56
			c-0.5-0.23-0.97-0.47-1.41-0.72s-0.83-0.53-1.16-0.84s-0.59-0.66-0.78-1.07s-0.28-0.88-0.28-1.42c0-0.55,0.1-1.05,0.3-1.52
			s0.49-0.88,0.88-1.24s0.87-0.63,1.43-0.84s1.21-0.3,1.93-0.3c0.99,0,1.85,0.16,2.57,0.49s1.27,0.79,1.66,1.39s0.59,1.31,0.59,2.13
			h-3.84c0-0.32-0.03-0.58-0.08-0.79s-0.15-0.36-0.3-0.46s-0.35-0.15-0.6-0.15c-0.13,0-0.27,0.04-0.41,0.12s-0.26,0.2-0.35,0.36
			s-0.14,0.36-0.14,0.6c0,0.17,0.03,0.32,0.1,0.44s0.16,0.23,0.29,0.34s0.27,0.21,0.44,0.32s0.37,0.23,0.59,0.36
			c0.67,0.26,1.34,0.54,1.99,0.84c0.66,0.3,1.21,0.71,1.65,1.23s0.66,1.22,0.66,2.12c0,0.56-0.11,1.07-0.34,1.54
			s-0.55,0.86-0.97,1.21s-0.92,0.61-1.52,0.79s-1.26,0.27-2,0.27c-1.05,0-1.93-0.21-2.65-0.62s-1.27-0.94-1.63-1.58
			s-0.55-1.3-0.55-1.98h3.57c0.01,0.39,0.07,0.7,0.18,0.93s0.26,0.39,0.46,0.49s0.44,0.15,0.74,0.15c0.23,0,0.41-0.04,0.56-0.12
			s0.26-0.2,0.33-0.36S629.41,259.81,629.41,259.59z"/>
	</g>
</g>
<circle class="st7" cx="230.47" cy="317.22" r="4.19"/>
<line class="st8" x1="451.7" y1="317.22" x2="230.47" y2="317.22"/>
<g>
	<g>
		<path class="st9" d="M471.16,311.6v2.58c0,1.23-0.15,2.3-0.46,3.23s-0.74,1.71-1.3,2.34s-1.23,1.1-2,1.42s-1.62,0.47-2.56,0.47
			c-0.95,0-1.8-0.16-2.58-0.47s-1.44-0.79-2-1.42s-1-1.41-1.3-2.34s-0.46-2.01-0.46-3.23v-2.58c0-1.23,0.15-2.31,0.46-3.25
			s0.74-1.72,1.29-2.34s1.22-1.1,2-1.42s1.63-0.48,2.58-0.48c0.94,0,1.79,0.16,2.57,0.48s1.44,0.79,2,1.42s0.99,1.41,1.29,2.34
			S471.16,310.37,471.16,311.6z M467.09,314.18v-2.6c0-0.77-0.05-1.42-0.14-1.96s-0.23-0.98-0.42-1.31s-0.42-0.58-0.7-0.74
			s-0.61-0.23-1-0.23c-0.4,0-0.74,0.08-1.02,0.23s-0.51,0.4-0.7,0.74s-0.32,0.77-0.4,1.31s-0.13,1.19-0.13,1.96v2.6
			c0,0.76,0.04,1.4,0.13,1.94s0.22,0.97,0.4,1.32s0.42,0.6,0.71,0.76s0.63,0.24,1.02,0.24c0.38,0,0.71-0.08,0.99-0.24
			s0.52-0.41,0.7-0.76s0.32-0.78,0.42-1.32S467.09,314.94,467.09,314.18z"/>
		<path class="st9" d="M473.15,303.41H477v14.88l-0.4,3.12h-3.45V303.41z M483.32,314.46v1.18c0,1.04-0.08,1.93-0.24,2.68
			s-0.41,1.37-0.76,1.86s-0.78,0.86-1.3,1.1s-1.14,0.36-1.86,0.36c-0.62,0-1.13-0.16-1.55-0.48s-0.76-0.76-1.04-1.33
			s-0.49-1.22-0.66-1.97s-0.3-1.54-0.41-2.4v-0.8c0.11-0.84,0.24-1.64,0.4-2.39s0.38-1.41,0.65-1.97s0.62-1.01,1.04-1.33
			s0.94-0.48,1.55-0.48c0.73,0,1.35,0.12,1.88,0.37s0.96,0.62,1.3,1.11s0.6,1.12,0.76,1.86S483.32,313.45,483.32,314.46z
			 M479.48,315.64v-1.18c0-0.53-0.01-0.98-0.04-1.35s-0.08-0.67-0.17-0.9s-0.22-0.4-0.39-0.5s-0.41-0.16-0.71-0.16
			s-0.54,0.06-0.74,0.19s-0.36,0.31-0.47,0.54s-0.19,0.53-0.23,0.88s-0.05,0.74-0.03,1.19v1.43c-0.04,0.61-0.02,1.12,0.05,1.55
			s0.22,0.74,0.45,0.96s0.56,0.33,0.99,0.33c0.31,0,0.56-0.04,0.73-0.13s0.3-0.25,0.39-0.47s0.13-0.53,0.15-0.91
			S479.48,316.22,479.48,315.64z"/>
		<path class="st9" d="M488.39,308.73l1.14,3.49l1.2-3.49h3.96l-2.61,6.18l2.75,6.5h-4.01l-1.29-3.75l-1.29,3.75h-4.01l2.77-6.5
			l-2.61-6.18H488.39z"/>
		<path class="st9" d="M501.38,321.64c-0.91,0-1.71-0.12-2.42-0.38s-1.3-0.62-1.78-1.11s-0.84-1.08-1.08-1.79s-0.37-1.51-0.37-2.41
			v-1.38c0-1.02,0.11-1.9,0.32-2.66s0.54-1.39,0.97-1.89s0.98-0.88,1.64-1.14s1.45-0.39,2.34-0.39c0.79,0,1.49,0.12,2.1,0.35
			s1.13,0.6,1.56,1.08s0.75,1.11,0.98,1.86s0.34,1.65,0.34,2.68v1.84h-8.81v-2.47h5.05v-0.43c0.01-0.52-0.04-0.91-0.13-1.17
			s-0.24-0.45-0.43-0.54s-0.42-0.15-0.69-0.15c-0.32,0-0.57,0.05-0.76,0.16s-0.32,0.28-0.41,0.52s-0.14,0.55-0.17,0.94
			s-0.04,0.86-0.04,1.42v1.38c0,0.55,0.04,0.99,0.13,1.34s0.22,0.61,0.4,0.8s0.39,0.32,0.64,0.39s0.54,0.11,0.87,0.11
			c0.47,0,0.93-0.08,1.37-0.24s0.82-0.42,1.14-0.79l1.57,2.39c-0.21,0.27-0.52,0.54-0.94,0.8s-0.91,0.47-1.48,0.64
			S502.09,321.64,501.38,321.64z"/>
		<path class="st9" d="M512.25,318.61c0.27,0,0.48-0.05,0.64-0.14s0.28-0.26,0.36-0.51s0.1-0.6,0.09-1.07h3.6
			c0.02,1.05-0.18,1.92-0.58,2.63s-0.95,1.24-1.65,1.59s-1.48,0.53-2.37,0.53c-0.86,0-1.61-0.13-2.25-0.38s-1.17-0.63-1.6-1.13
			s-0.74-1.12-0.96-1.86s-0.32-1.61-0.32-2.59v-1.21c0-0.98,0.11-1.85,0.32-2.6s0.53-1.37,0.96-1.87s0.96-0.88,1.59-1.13
			s1.38-0.38,2.23-0.38c0.92,0,1.73,0.18,2.43,0.54s1.24,0.91,1.63,1.66s0.58,1.71,0.56,2.88h-3.6c0.02-0.48-0.01-0.88-0.08-1.18
			s-0.18-0.52-0.35-0.66s-0.39-0.21-0.69-0.21c-0.29,0-0.51,0.05-0.67,0.16s-0.27,0.28-0.34,0.52s-0.11,0.54-0.12,0.91
			s-0.02,0.82-0.02,1.34v1.21c0,0.53,0.01,0.98,0.02,1.36s0.06,0.68,0.13,0.91s0.19,0.4,0.35,0.5S511.96,318.61,512.25,318.61z"/>
		<path class="st9" d="M524.57,308.73v2.74h-6.7v-2.74H524.57z M519.09,305.58h3.86v11.7c0,0.34,0.03,0.6,0.08,0.78
			s0.15,0.31,0.29,0.39s0.35,0.11,0.62,0.11c0.19,0,0.34-0.01,0.46-0.02s0.23-0.03,0.32-0.05l-0.02,2.82
			c-0.3,0.11-0.62,0.19-0.94,0.25s-0.68,0.09-1.06,0.09c-0.76,0-1.4-0.13-1.94-0.4s-0.95-0.68-1.23-1.25s-0.43-1.31-0.43-2.23
			V305.58z"/>
		<path class="st9" d="M526.09,305.46c0-0.56,0.19-1.02,0.58-1.38s0.89-0.54,1.51-0.54c0.62,0,1.13,0.18,1.51,0.54
			s0.57,0.82,0.57,1.38s-0.19,1.02-0.57,1.38s-0.89,0.54-1.51,0.54c-0.62,0-1.12-0.18-1.51-0.54S526.09,306.02,526.09,305.46z
			 M530.12,308.73v12.68h-3.84v-12.68H530.12z"/>
		<path class="st9" d="M535.57,308.73l1.72,9.97l-0.05,2.71h-2.38l-3.35-12.68H535.57z M536.34,318.7l1.75-9.97h4.05l-3.35,12.68
			h-2.38L536.34,318.7z"/>
		<path class="st9" d="M543.03,315.67v-1.18c0-1,0.12-1.87,0.38-2.62s0.61-1.37,1.07-1.86s1.01-0.87,1.65-1.12s1.36-0.38,2.14-0.38
			c0.8,0,1.53,0.13,2.17,0.38s1.19,0.63,1.65,1.12s0.82,1.12,1.07,1.86s0.38,1.62,0.38,2.62v1.18c0,0.99-0.12,1.86-0.38,2.61
			s-0.6,1.38-1.06,1.88s-1.01,0.87-1.65,1.12s-1.36,0.37-2.15,0.37s-1.51-0.12-2.16-0.37s-1.2-0.62-1.66-1.12s-0.82-1.12-1.07-1.88
			S543.03,316.66,543.03,315.67z M546.89,314.48v1.18c0,0.54,0.03,1,0.09,1.38s0.15,0.68,0.28,0.91s0.27,0.4,0.44,0.5
			s0.37,0.15,0.6,0.15c0.29,0,0.53-0.05,0.71-0.15s0.33-0.27,0.43-0.5s0.17-0.54,0.21-0.91s0.05-0.84,0.05-1.38v-1.18
			c0-0.53-0.03-0.98-0.09-1.35s-0.15-0.68-0.27-0.91s-0.27-0.41-0.45-0.52s-0.38-0.16-0.61-0.16c-0.22,0-0.41,0.05-0.59,0.16
			s-0.32,0.28-0.43,0.52s-0.21,0.54-0.27,0.91S546.89,313.95,546.89,314.48z"/>
		<path class="st9" d="M560.64,317.96c0-0.23-0.08-0.41-0.25-0.54s-0.39-0.27-0.69-0.41s-0.65-0.33-1.07-0.56
			c-0.5-0.23-0.97-0.47-1.41-0.72s-0.83-0.53-1.16-0.84s-0.59-0.66-0.78-1.07s-0.28-0.88-0.28-1.42c0-0.55,0.1-1.05,0.3-1.52
			s0.49-0.88,0.88-1.24s0.87-0.63,1.43-0.84s1.21-0.3,1.93-0.3c0.99,0,1.85,0.16,2.57,0.49s1.27,0.79,1.66,1.39s0.59,1.31,0.59,2.13
			h-3.84c0-0.32-0.03-0.58-0.08-0.79s-0.15-0.36-0.3-0.46s-0.35-0.15-0.6-0.15c-0.13,0-0.27,0.04-0.41,0.12s-0.26,0.2-0.35,0.36
			s-0.14,0.36-0.14,0.6c0,0.17,0.03,0.32,0.1,0.44s0.16,0.23,0.29,0.34s0.27,0.21,0.44,0.32s0.37,0.23,0.59,0.36
			c0.67,0.26,1.34,0.54,1.99,0.84s1.21,0.71,1.65,1.23s0.66,1.22,0.66,2.12c0,0.56-0.11,1.07-0.34,1.54s-0.55,0.86-0.97,1.21
			s-0.92,0.61-1.52,0.79s-1.26,0.27-2,0.27c-1.05,0-1.93-0.21-2.65-0.62s-1.27-0.94-1.63-1.58s-0.55-1.3-0.55-1.98h3.57
			c0.01,0.39,0.07,0.7,0.18,0.93s0.26,0.39,0.46,0.49s0.44,0.15,0.74,0.15c0.23,0,0.41-0.04,0.56-0.12s0.26-0.2,0.33-0.36
			S560.64,318.19,560.64,317.96z"/>
		<path class="st9" d="M575.77,304.35v17.06h-4.01v-17.06H575.77z M581.88,304.35v3.18h-7.5v-3.18H581.88z M580.87,311.12v3.06
			h-6.49v-3.06H580.87z M581.84,318.24v3.16h-7.46v-3.16H581.84z"/>
		<path class="st9" d="M588.76,317.96c0-0.23-0.08-0.41-0.25-0.54s-0.39-0.27-0.69-0.41s-0.65-0.33-1.07-0.56
			c-0.5-0.23-0.97-0.47-1.41-0.72s-0.83-0.53-1.16-0.84s-0.59-0.66-0.78-1.07s-0.28-0.88-0.28-1.42c0-0.55,0.1-1.05,0.3-1.52
			s0.49-0.88,0.88-1.24s0.87-0.63,1.43-0.84s1.21-0.3,1.93-0.3c0.99,0,1.85,0.16,2.57,0.49s1.27,0.79,1.66,1.39s0.59,1.31,0.59,2.13
			h-3.84c0-0.32-0.03-0.58-0.08-0.79s-0.15-0.36-0.3-0.46s-0.35-0.15-0.6-0.15c-0.13,0-0.27,0.04-0.41,0.12s-0.26,0.2-0.35,0.36
			s-0.14,0.36-0.14,0.6c0,0.17,0.03,0.32,0.1,0.44s0.16,0.23,0.29,0.34s0.27,0.21,0.44,0.32s0.37,0.23,0.59,0.36
			c0.67,0.26,1.34,0.54,1.99,0.84s1.21,0.71,1.65,1.23s0.66,1.22,0.66,2.12c0,0.56-0.11,1.07-0.34,1.54s-0.55,0.86-0.97,1.21
			s-0.92,0.61-1.52,0.79s-1.26,0.27-2,0.27c-1.05,0-1.93-0.21-2.65-0.62s-1.27-0.94-1.63-1.58s-0.55-1.3-0.55-1.98h3.57
			c0.01,0.39,0.07,0.7,0.18,0.93s0.26,0.39,0.46,0.49s0.44,0.15,0.74,0.15c0.23,0,0.41-0.04,0.56-0.12s0.26-0.2,0.33-0.36
			S588.76,318.19,588.76,317.96z"/>
		<path class="st9" d="M600.21,308.73v2.74h-6.7v-2.74H600.21z M594.72,305.58h3.86v11.7c0,0.34,0.03,0.6,0.08,0.78
			s0.15,0.31,0.29,0.39s0.35,0.11,0.62,0.11c0.19,0,0.34-0.01,0.46-0.02s0.23-0.03,0.32-0.05l-0.02,2.82
			c-0.3,0.11-0.62,0.19-0.94,0.25s-0.68,0.09-1.06,0.09c-0.76,0-1.4-0.13-1.94-0.4s-0.95-0.68-1.23-1.25s-0.43-1.31-0.43-2.23
			V305.58z"/>
		<path class="st9" d="M605.6,311.87v9.54h-3.86v-12.68h3.59L605.6,311.87z M608.54,308.64l-0.05,3.67
			c-0.15-0.02-0.34-0.04-0.59-0.06s-0.44-0.04-0.6-0.04c-0.35,0-0.65,0.05-0.89,0.16s-0.44,0.26-0.6,0.47s-0.28,0.47-0.35,0.78
			s-0.1,0.68-0.09,1.09l-0.64-0.47c0-0.85,0.07-1.63,0.21-2.33s0.33-1.3,0.58-1.82s0.55-0.91,0.9-1.18s0.74-0.42,1.17-0.42
			c0.16,0,0.33,0.01,0.5,0.04S608.41,308.59,608.54,308.64z"/>
		<path class="st9" d="M615.73,313.66l0.02,2.11h-1c-0.24,0-0.45,0.06-0.62,0.17s-0.31,0.26-0.43,0.45s-0.19,0.4-0.24,0.63
			s-0.07,0.47-0.07,0.71c0,0.34,0.04,0.59,0.11,0.75s0.17,0.26,0.28,0.3s0.24,0.06,0.38,0.06c0.3,0,0.54-0.06,0.74-0.19
			s0.34-0.28,0.43-0.46s0.11-0.33,0.07-0.46l0.4,1.55c-0.13,0.29-0.26,0.57-0.39,0.85s-0.28,0.53-0.47,0.76s-0.42,0.41-0.69,0.55
			s-0.62,0.21-1.03,0.21c-0.66,0-1.26-0.13-1.82-0.4s-1.01-0.68-1.35-1.23s-0.51-1.26-0.51-2.11c0-0.59,0.09-1.13,0.28-1.65
			s0.47-0.96,0.87-1.35s0.94-0.7,1.61-0.91s1.5-0.33,2.48-0.33H615.73z M615.3,318.22v-5.58c0-0.36-0.03-0.63-0.08-0.83
			s-0.14-0.33-0.26-0.41s-0.3-0.12-0.53-0.12c-0.19,0-0.34,0.05-0.46,0.14s-0.2,0.24-0.25,0.43s-0.07,0.45-0.07,0.77h-3.86
			c0-0.59,0.11-1.13,0.34-1.63s0.55-0.94,0.97-1.32s0.93-0.67,1.52-0.87s1.25-0.31,1.99-0.31c0.87,0,1.64,0.14,2.33,0.42
			s1.23,0.72,1.63,1.33s0.6,1.42,0.6,2.43v5.54c0,0.83,0.04,1.46,0.13,1.88s0.2,0.8,0.35,1.12v0.2h-3.84
			c-0.18-0.39-0.31-0.87-0.39-1.44S615.3,318.82,615.3,318.22z"/>
		<path class="st9" d="M627.17,308.73v2.74h-6.7v-2.74H627.17z M621.69,305.58h3.86v11.7c0,0.34,0.03,0.6,0.08,0.78
			s0.15,0.31,0.29,0.39s0.35,0.11,0.62,0.11c0.19,0,0.34-0.01,0.46-0.02s0.23-0.03,0.32-0.05l-0.02,2.82
			c-0.3,0.11-0.62,0.19-0.94,0.25s-0.68,0.09-1.06,0.09c-0.76,0-1.4-0.13-1.94-0.4s-0.95-0.68-1.23-1.25s-0.43-1.31-0.43-2.23
			V305.58z"/>
		<path class="st9" d="M634.09,321.64c-0.91,0-1.71-0.12-2.42-0.38s-1.3-0.62-1.78-1.11s-0.84-1.08-1.08-1.79s-0.37-1.51-0.37-2.41
			v-1.38c0-1.02,0.11-1.9,0.32-2.66s0.54-1.39,0.97-1.89s0.98-0.88,1.64-1.14s1.45-0.39,2.34-0.39c0.79,0,1.49,0.12,2.1,0.35
			s1.13,0.6,1.56,1.08s0.75,1.11,0.98,1.86s0.34,1.65,0.34,2.68v1.84h-8.81v-2.47h5.05v-0.43c0.01-0.52-0.04-0.91-0.13-1.17
			s-0.24-0.45-0.43-0.54s-0.42-0.15-0.69-0.15c-0.32,0-0.57,0.05-0.76,0.16s-0.32,0.28-0.41,0.52s-0.14,0.55-0.17,0.94
			s-0.04,0.86-0.04,1.42v1.38c0,0.55,0.04,0.99,0.13,1.34s0.22,0.61,0.4,0.8s0.39,0.32,0.64,0.39s0.54,0.11,0.87,0.11
			c0.47,0,0.93-0.08,1.37-0.24s0.82-0.42,1.14-0.79l1.57,2.39c-0.21,0.27-0.52,0.54-0.94,0.8s-0.91,0.47-1.48,0.64
			S634.8,321.64,634.09,321.64z M631.27,307.08l2.32-3.68h4.17l-3.27,3.68H631.27z"/>
		<path class="st9" d="M643.68,308.73l1.14,3.49l1.2-3.49h3.96l-2.61,6.18l2.75,6.5h-4.01l-1.29-3.75l-1.29,3.75h-4.01l2.77-6.5
			l-2.61-6.18H643.68z"/>
		<path class="st9" d="M651.28,305.46c0-0.56,0.19-1.02,0.58-1.38s0.89-0.54,1.51-0.54c0.62,0,1.13,0.18,1.51,0.54
			s0.57,0.82,0.57,1.38s-0.19,1.02-0.57,1.38s-0.89,0.54-1.51,0.54c-0.62,0-1.12-0.18-1.51-0.54S651.28,306.02,651.28,305.46z
			 M655.31,308.73v12.68h-3.84v-12.68H655.31z"/>
		<path class="st9" d="M662.21,318.61c0.27,0,0.48-0.05,0.64-0.14s0.28-0.26,0.36-0.51s0.1-0.6,0.09-1.07h3.6
			c0.02,1.05-0.18,1.92-0.58,2.63s-0.95,1.24-1.65,1.59s-1.48,0.53-2.37,0.53c-0.86,0-1.61-0.13-2.25-0.38s-1.17-0.63-1.6-1.13
			s-0.74-1.12-0.96-1.86s-0.32-1.61-0.32-2.59v-1.21c0-0.98,0.11-1.85,0.32-2.6s0.53-1.37,0.96-1.87s0.96-0.88,1.59-1.13
			s1.38-0.38,2.23-0.38c0.92,0,1.73,0.18,2.43,0.54s1.24,0.91,1.63,1.66s0.58,1.71,0.56,2.88h-3.6c0.02-0.48-0.01-0.88-0.08-1.18
			s-0.18-0.52-0.35-0.66s-0.39-0.21-0.69-0.21c-0.29,0-0.51,0.05-0.67,0.16s-0.27,0.28-0.34,0.52s-0.11,0.54-0.12,0.91
			s-0.02,0.82-0.02,1.34v1.21c0,0.53,0.01,0.98,0.02,1.36s0.06,0.68,0.13,0.91s0.19,0.4,0.35,0.5S661.92,318.61,662.21,318.61z"/>
		<path class="st9" d="M668.19,315.67v-1.18c0-1,0.12-1.87,0.38-2.62s0.61-1.37,1.07-1.86s1.01-0.87,1.65-1.12s1.36-0.38,2.14-0.38
			c0.8,0,1.53,0.13,2.17,0.38s1.19,0.63,1.65,1.12s0.82,1.12,1.07,1.86s0.38,1.62,0.38,2.62v1.18c0,0.99-0.12,1.86-0.38,2.61
			s-0.6,1.38-1.06,1.88s-1.01,0.87-1.65,1.12s-1.36,0.37-2.15,0.37s-1.51-0.12-2.16-0.37s-1.2-0.62-1.66-1.12s-0.82-1.12-1.07-1.88
			S668.19,316.66,668.19,315.67z M672.04,314.48v1.18c0,0.54,0.03,1,0.09,1.38s0.15,0.68,0.28,0.91s0.27,0.4,0.44,0.5
			s0.37,0.15,0.6,0.15c0.29,0,0.53-0.05,0.71-0.15s0.33-0.27,0.43-0.5s0.17-0.54,0.21-0.91s0.05-0.84,0.05-1.38v-1.18
			c0-0.53-0.03-0.98-0.09-1.35s-0.15-0.68-0.27-0.91s-0.27-0.41-0.45-0.52s-0.38-0.16-0.61-0.16c-0.22,0-0.41,0.05-0.59,0.16
			s-0.32,0.28-0.43,0.52s-0.21,0.54-0.27,0.91S672.04,313.95,672.04,314.48z"/>
		<path class="st9" d="M685.8,317.96c0-0.23-0.08-0.41-0.25-0.54s-0.39-0.27-0.69-0.41s-0.65-0.33-1.07-0.56
			c-0.5-0.23-0.97-0.47-1.41-0.72s-0.83-0.53-1.16-0.84s-0.59-0.66-0.78-1.07s-0.28-0.88-0.28-1.42c0-0.55,0.1-1.05,0.3-1.52
			s0.49-0.88,0.88-1.24s0.87-0.63,1.43-0.84s1.21-0.3,1.93-0.3c0.99,0,1.85,0.16,2.57,0.49s1.27,0.79,1.66,1.39s0.59,1.31,0.59,2.13
			h-3.84c0-0.32-0.03-0.58-0.08-0.79s-0.15-0.36-0.3-0.46s-0.35-0.15-0.6-0.15c-0.13,0-0.27,0.04-0.41,0.12s-0.26,0.2-0.35,0.36
			s-0.14,0.36-0.14,0.6c0,0.17,0.03,0.32,0.1,0.44s0.16,0.23,0.29,0.34s0.27,0.21,0.44,0.32s0.37,0.23,0.59,0.36
			c0.67,0.26,1.34,0.54,1.99,0.84s1.21,0.71,1.65,1.23s0.66,1.22,0.66,2.12c0,0.56-0.11,1.07-0.34,1.54s-0.55,0.86-0.97,1.21
			s-0.92,0.61-1.52,0.79s-1.26,0.27-2,0.27c-1.05,0-1.93-0.21-2.65-0.62s-1.27-0.94-1.63-1.58s-0.55-1.3-0.55-1.98h3.57
			c0.01,0.39,0.07,0.7,0.18,0.93s0.26,0.39,0.46,0.49s0.44,0.15,0.74,0.15c0.23,0,0.41-0.04,0.56-0.12s0.26-0.2,0.33-0.36
			S685.8,318.19,685.8,317.96z"/>
	</g>
</g>
<circle class="st7" cx="230.47" cy="375.6" r="4.19"/>
<line class="st8" x1="451.7" y1="375.6" x2="230.47" y2="375.6"/>
<g>
	<g>
		<path class="st9" d="M458.76,362.72h3.36l0.64,13.08v3.98h-4.01V362.72z M460.77,362.72h3.25l2.68,11.87l2.68-11.87h3.23
			l-4.59,17.06h-2.65L460.77,362.72z M471.25,362.72h3.38v17.06h-4.02v-3.98L471.25,362.72z"/>
		<path class="st9" d="M482.25,380.02c-0.91,0-1.71-0.12-2.42-0.38s-1.3-0.62-1.78-1.11s-0.84-1.08-1.08-1.79s-0.37-1.51-0.37-2.41
			v-1.38c0-1.02,0.11-1.9,0.32-2.66s0.54-1.39,0.97-1.89s0.98-0.88,1.64-1.14s1.45-0.39,2.34-0.39c0.79,0,1.49,0.12,2.1,0.35
			s1.13,0.6,1.56,1.08s0.75,1.11,0.98,1.86s0.34,1.65,0.34,2.68v1.84h-8.81v-2.47h5.05v-0.43c0.01-0.52-0.04-0.91-0.13-1.17
			s-0.24-0.45-0.43-0.54s-0.42-0.15-0.69-0.15c-0.32,0-0.57,0.05-0.76,0.16s-0.32,0.28-0.41,0.52s-0.14,0.55-0.17,0.94
			s-0.04,0.86-0.04,1.42v1.38c0,0.55,0.04,0.99,0.13,1.34s0.22,0.61,0.4,0.8s0.39,0.32,0.64,0.39s0.54,0.11,0.87,0.11
			c0.47,0,0.93-0.08,1.37-0.24s0.82-0.42,1.14-0.79l1.57,2.39c-0.21,0.27-0.52,0.54-0.94,0.8s-0.91,0.47-1.48,0.64
			S482.96,380.02,482.25,380.02z"/>
		<path class="st9" d="M494.43,367.11v2.74h-6.7v-2.74H494.43z M488.95,363.95h3.86v11.7c0,0.34,0.03,0.6,0.08,0.78
			s0.15,0.31,0.29,0.39s0.35,0.11,0.62,0.11c0.19,0,0.34-0.01,0.46-0.02s0.23-0.03,0.32-0.05l-0.02,2.82
			c-0.3,0.11-0.62,0.19-0.94,0.25s-0.68,0.09-1.06,0.09c-0.76,0-1.4-0.13-1.94-0.4s-0.95-0.68-1.23-1.25s-0.43-1.31-0.43-2.23
			V363.95z"/>
		<path class="st9" d="M501.69,372.04l0.02,2.11h-1c-0.24,0-0.45,0.06-0.62,0.17s-0.31,0.26-0.43,0.45s-0.19,0.4-0.24,0.63
			s-0.07,0.47-0.07,0.71c0,0.34,0.04,0.59,0.11,0.75s0.17,0.26,0.28,0.3s0.24,0.06,0.38,0.06c0.3,0,0.54-0.06,0.74-0.19
			s0.34-0.28,0.43-0.46s0.11-0.33,0.07-0.46l0.4,1.55c-0.13,0.29-0.26,0.57-0.39,0.85s-0.28,0.53-0.47,0.76s-0.42,0.41-0.69,0.55
			s-0.62,0.21-1.03,0.21c-0.66,0-1.26-0.13-1.82-0.4s-1.01-0.68-1.35-1.23s-0.51-1.26-0.51-2.11c0-0.59,0.09-1.13,0.28-1.65
			s0.47-0.96,0.87-1.35s0.94-0.7,1.61-0.91s1.5-0.33,2.48-0.33H501.69z M501.25,376.6v-5.58c0-0.36-0.03-0.63-0.08-0.83
			s-0.14-0.33-0.26-0.41s-0.3-0.12-0.53-0.12c-0.19,0-0.34,0.05-0.46,0.14s-0.2,0.24-0.25,0.43s-0.07,0.45-0.07,0.77h-3.86
			c0-0.59,0.11-1.13,0.34-1.63s0.55-0.94,0.97-1.32s0.93-0.67,1.52-0.87s1.25-0.31,1.99-0.31c0.87,0,1.64,0.14,2.33,0.42
			s1.23,0.72,1.63,1.33s0.6,1.42,0.6,2.43v5.54c0,0.83,0.04,1.46,0.13,1.88s0.2,0.8,0.35,1.12v0.2h-3.84
			c-0.18-0.39-0.31-0.87-0.39-1.44S501.25,377.2,501.25,376.6z"/>
		<path class="st9" d="M512.54,376.34c0-0.23-0.08-0.41-0.25-0.54s-0.39-0.27-0.69-0.41s-0.65-0.33-1.07-0.56
			c-0.5-0.23-0.97-0.47-1.41-0.72s-0.83-0.53-1.16-0.84s-0.59-0.66-0.78-1.07s-0.28-0.88-0.28-1.42c0-0.55,0.1-1.05,0.3-1.52
			s0.49-0.88,0.88-1.24s0.87-0.63,1.43-0.84s1.21-0.3,1.93-0.3c0.99,0,1.85,0.16,2.57,0.49s1.27,0.79,1.66,1.39s0.59,1.31,0.59,2.13
			h-3.84c0-0.32-0.03-0.58-0.08-0.79s-0.15-0.36-0.3-0.46c-0.14-0.1-0.35-0.15-0.6-0.15c-0.13,0-0.27,0.04-0.41,0.12
			s-0.26,0.2-0.35,0.36s-0.14,0.36-0.14,0.6c0,0.17,0.03,0.32,0.1,0.44s0.16,0.23,0.29,0.34s0.27,0.21,0.44,0.32
			s0.37,0.23,0.59,0.36c0.67,0.26,1.34,0.54,1.99,0.84s1.21,0.71,1.65,1.23s0.66,1.22,0.66,2.12c0,0.56-0.11,1.07-0.34,1.54
			s-0.55,0.86-0.97,1.21s-0.92,0.61-1.52,0.79s-1.26,0.27-2,0.27c-1.05,0-1.93-0.21-2.65-0.62s-1.27-0.94-1.63-1.58
			s-0.55-1.3-0.55-1.98h3.57c0.01,0.39,0.07,0.7,0.18,0.93s0.26,0.39,0.46,0.49s0.44,0.15,0.74,0.15c0.23,0,0.41-0.04,0.56-0.12
			c0.15-0.08,0.26-0.2,0.33-0.36S512.54,376.57,512.54,376.34z"/>
	</g>
</g>
</svg>
